<?xml version="1.0" encoding="UTF-8" standalone="no"?>
<!DOCTYPE svg PUBLIC "-//W3C//DTD SVG 1.1//EN"
 "http://www.w3.org/Graphics/SVG/1.1/DTD/svg11.dtd">
<!-- Generated by graphviz version 2.47.3 (20210619.1520)
 -->
<!-- Title: dependencies Pages: 1 -->
<svg width="583pt" height="174pt"
 viewBox="0.00 0.00 583.00 173.80" xmlns="http://www.w3.org/2000/svg" xmlns:xlink="http://www.w3.org/1999/xlink">
<g id="graph0" class="graph" transform="scale(1 1) rotate(0) translate(4 169.8)">
<title>dependencies</title>
<polygon fill="white" stroke="transparent" points="-4,4 -4,-169.8 579,-169.8 579,4 -4,4"/>
<text text-anchor="middle" x="287.5" y="-8.2" font-family="sans-serif" font-size="14.00">dependencies</text>
<g id="clust1" class="cluster">
<title>cluster_NotificationsModule</title>
<polygon fill="none" stroke="black" stroke-dasharray="1,5" points="8,-32.8 8,-157.8 567,-157.8 567,-32.8 8,-32.8"/>
</g>
<g id="clust2" class="cluster">
<title>cluster_NotificationsModule_declarations</title>
<polygon fill="none" stroke="black" points="138,-40.8 138,-92.8 559,-92.8 559,-40.8 138,-40.8"/>
</g>
<g id="clust5" class="cluster">
<title>cluster_NotificationsModule_imports</title>
<polygon fill="none" stroke="black" points="16,-40.8 16,-92.8 130,-92.8 130,-40.8 16,-40.8"/>
</g>
<!-- NotificationsInboxComponent -->
<g id="node1" class="node">
<title>NotificationsInboxComponent</title>
<polygon fill="#ffffb3" stroke="black" points="550.59,-84.8 363.41,-84.8 363.41,-48.8 550.59,-48.8 550.59,-84.8"/>
<text text-anchor="middle" x="457" y="-62.6" font-family="Times,serif" font-size="14.00">NotificationsInboxComponent</text>
</g>
<!-- NotificationsModule -->
<g id="node3" class="node">
<title>NotificationsModule</title>
<polygon fill="#8dd3c7" stroke="black" points="312.14,-149.8 309.14,-153.8 288.14,-153.8 285.14,-149.8 179.86,-149.8 179.86,-113.8 312.14,-113.8 312.14,-149.8"/>
<text text-anchor="middle" x="246" y="-127.6" font-family="Times,serif" font-size="14.00">NotificationsModule</text>
</g>
<!-- NotificationsInboxComponent&#45;&gt;NotificationsModule -->
<g id="edge1" class="edge">
<title>NotificationsInboxComponent&#45;&gt;NotificationsModule</title>
<path fill="none" stroke="black" d="M457,-84.91C457,-104.14 457,-131.8 457,-131.8 457,-131.8 322.18,-131.8 322.18,-131.8"/>
<polygon fill="black" stroke="black" points="322.18,-128.3 312.18,-131.8 322.18,-135.3 322.18,-128.3"/>
</g>
<!-- NotificationsSettingsComponent -->
<g id="node2" class="node">
<title>NotificationsSettingsComponent</title>
<polygon fill="#ffffb3" stroke="black" points="345.54,-84.8 146.46,-84.8 146.46,-48.8 345.54,-48.8 345.54,-84.8"/>
<text text-anchor="middle" x="246" y="-62.6" font-family="Times,serif" font-size="14.00">NotificationsSettingsComponent</text>
</g>
<!-- NotificationsSettingsComponent&#45;&gt;NotificationsModule -->
<g id="edge2" class="edge">
<title>NotificationsSettingsComponent&#45;&gt;NotificationsModule</title>
<path fill="none" stroke="black" d="M246,-84.91C246,-84.91 246,-103.79 246,-103.79"/>
<polygon fill="black" stroke="black" points="242.5,-103.79 246,-113.79 249.5,-103.79 242.5,-103.79"/>
</g>
<!-- SharedModule -->
<g id="node4" class="node">
<title>SharedModule</title>
<polygon fill="#8dd3c7" stroke="black" points="122.42,-84.8 119.42,-88.8 98.42,-88.8 95.42,-84.8 23.58,-84.8 23.58,-48.8 122.42,-48.8 122.42,-84.8"/>
<text text-anchor="middle" x="73" y="-62.6" font-family="Times,serif" font-size="14.00">SharedModule</text>
</g>
<!-- SharedModule&#45;&gt;NotificationsModule -->
<g id="edge3" class="edge">
<title>SharedModule&#45;&gt;NotificationsModule</title>
<path fill="none" stroke="black" d="M73,-84.91C73,-104.14 73,-131.8 73,-131.8 73,-131.8 169.61,-131.8 169.61,-131.8"/>
<polygon fill="black" stroke="black" points="169.61,-135.3 179.61,-131.8 169.61,-128.3 169.61,-135.3"/>
</g>
</g>
</svg>
