<?xml version="1.0" encoding="UTF-8" standalone="no"?>
<!DOCTYPE svg PUBLIC "-//W3C//DTD SVG 1.1//EN"
 "http://www.w3.org/Graphics/SVG/1.1/DTD/svg11.dtd">
<!-- Generated by graphviz version 2.47.3 (20210619.1520)
 -->
<!-- Title: dependencies Pages: 1 -->
<svg width="691pt" height="174pt"
 viewBox="0.00 0.00 691.00 173.80" xmlns="http://www.w3.org/2000/svg" xmlns:xlink="http://www.w3.org/1999/xlink">
<g id="graph0" class="graph" transform="scale(1 1) rotate(0) translate(4 169.8)">
<title>dependencies</title>
<polygon fill="white" stroke="transparent" points="-4,4 -4,-169.8 687,-169.8 687,4 -4,4"/>
<text text-anchor="middle" x="341.5" y="-8.2" font-family="sans-serif" font-size="14.00">dependencies</text>
<g id="clust1" class="cluster">
<title>cluster_HomeModule</title>
<polygon fill="none" stroke="black" stroke-dasharray="1,5" points="8,-32.8 8,-157.8 675,-157.8 675,-32.8 8,-32.8"/>
</g>
<g id="clust2" class="cluster">
<title>cluster_HomeModule_declarations</title>
<polygon fill="none" stroke="black" points="138,-40.8 138,-92.8 667,-92.8 667,-40.8 138,-40.8"/>
</g>
<g id="clust6" class="cluster">
<title>cluster_HomeModule_imports</title>
<polygon fill="none" stroke="black" points="16,-40.8 16,-92.8 130,-92.8 130,-40.8 16,-40.8"/>
</g>
<!-- HomeCounterComponent -->
<g id="node1" class="node">
<title>HomeCounterComponent</title>
<polygon fill="#ffffb3" stroke="black" points="659.15,-84.8 498.85,-84.8 498.85,-48.8 659.15,-48.8 659.15,-84.8"/>
<text text-anchor="middle" x="579" y="-62.6" font-family="Times,serif" font-size="14.00">HomeCounterComponent</text>
</g>
<!-- HomeModule -->
<g id="node4" class="node">
<title>HomeModule</title>
<polygon fill="#8dd3c7" stroke="black" points="367.76,-149.8 364.76,-153.8 343.76,-153.8 340.76,-149.8 274.24,-149.8 274.24,-113.8 367.76,-113.8 367.76,-149.8"/>
<text text-anchor="middle" x="321" y="-127.6" font-family="Times,serif" font-size="14.00">HomeModule</text>
</g>
<!-- HomeCounterComponent&#45;&gt;HomeModule -->
<g id="edge1" class="edge">
<title>HomeCounterComponent&#45;&gt;HomeModule</title>
<path fill="none" stroke="black" d="M579,-84.91C579,-104.14 579,-131.8 579,-131.8 579,-131.8 378.02,-131.8 378.02,-131.8"/>
<polygon fill="black" stroke="black" points="378.02,-128.3 368.02,-131.8 378.02,-135.3 378.02,-128.3"/>
</g>
<!-- HomePageComponent -->
<g id="node2" class="node">
<title>HomePageComponent</title>
<polygon fill="#ffffb3" stroke="black" points="480.26,-84.8 337.74,-84.8 337.74,-48.8 480.26,-48.8 480.26,-84.8"/>
<text text-anchor="middle" x="409" y="-62.6" font-family="Times,serif" font-size="14.00">HomePageComponent</text>
</g>
<!-- HomePageComponent&#45;&gt;HomeModule -->
<g id="edge2" class="edge">
<title>HomePageComponent&#45;&gt;HomeModule</title>
<path fill="none" stroke="black" d="M352.75,-84.91C352.75,-84.91 352.75,-103.79 352.75,-103.79"/>
<polygon fill="black" stroke="black" points="349.25,-103.79 352.75,-113.79 356.25,-103.79 349.25,-103.79"/>
</g>
<!-- VerticalSwipperComponent -->
<g id="node3" class="node">
<title>VerticalSwipperComponent</title>
<polygon fill="#ffffb3" stroke="black" points="319.57,-84.8 146.43,-84.8 146.43,-48.8 319.57,-48.8 319.57,-84.8"/>
<text text-anchor="middle" x="233" y="-62.6" font-family="Times,serif" font-size="14.00">VerticalSwipperComponent</text>
</g>
<!-- VerticalSwipperComponent&#45;&gt;HomeModule -->
<g id="edge3" class="edge">
<title>VerticalSwipperComponent&#45;&gt;HomeModule</title>
<path fill="none" stroke="black" d="M296.83,-84.91C296.83,-84.91 296.83,-103.79 296.83,-103.79"/>
<polygon fill="black" stroke="black" points="293.33,-103.79 296.83,-113.79 300.33,-103.79 293.33,-103.79"/>
</g>
<!-- SharedModule -->
<g id="node5" class="node">
<title>SharedModule</title>
<polygon fill="#8dd3c7" stroke="black" points="122.42,-84.8 119.42,-88.8 98.42,-88.8 95.42,-84.8 23.58,-84.8 23.58,-48.8 122.42,-48.8 122.42,-84.8"/>
<text text-anchor="middle" x="73" y="-62.6" font-family="Times,serif" font-size="14.00">SharedModule</text>
</g>
<!-- SharedModule&#45;&gt;HomeModule -->
<g id="edge4" class="edge">
<title>SharedModule&#45;&gt;HomeModule</title>
<path fill="none" stroke="black" d="M73,-84.91C73,-104.14 73,-131.8 73,-131.8 73,-131.8 264.06,-131.8 264.06,-131.8"/>
<polygon fill="black" stroke="black" points="264.06,-135.3 274.06,-131.8 264.06,-128.3 264.06,-135.3"/>
</g>
</g>
</svg>
