<?xml version="1.0" encoding="UTF-8" standalone="no"?>
<!DOCTYPE svg PUBLIC "-//W3C//DTD SVG 1.1//EN"
 "http://www.w3.org/Graphics/SVG/1.1/DTD/svg11.dtd">
<!-- Generated by graphviz version 2.47.3 (20210619.1520)
 -->
<!-- Title: dependencies Pages: 1 -->
<svg width="160pt" height="247pt"
 viewBox="0.00 0.00 160.00 246.80" xmlns="http://www.w3.org/2000/svg" xmlns:xlink="http://www.w3.org/1999/xlink">
<g id="graph0" class="graph" transform="scale(1 1) rotate(0) translate(4 242.8)">
<title>dependencies</title>
<polygon fill="white" stroke="transparent" points="-4,4 -4,-242.8 156,-242.8 156,4 -4,4"/>
<text text-anchor="middle" x="76" y="-8.2" font-family="sans-serif" font-size="14.00">dependencies</text>
<g id="clust1" class="cluster">
<title>cluster_MainPipesModule</title>
<polygon fill="none" stroke="black" stroke-dasharray="1,5" points="8,-32.8 8,-230.8 144,-230.8 144,-32.8 8,-32.8"/>
</g>
<g id="clust2" class="cluster">
<title>cluster_MainPipesModule_declarations</title>
<polygon fill="none" stroke="black" points="34,-40.8 34,-92.8 118,-92.8 118,-40.8 34,-40.8"/>
</g>
<g id="clust5" class="cluster">
<title>cluster_MainPipesModule_exports</title>
<polygon fill="none" stroke="black" points="33,-170.8 33,-222.8 119,-222.8 119,-170.8 33,-170.8"/>
</g>
<!-- TitlePipe -->
<g id="node1" class="node">
<title>TitlePipe</title>
<polygon fill="#ffffb3" stroke="black" points="109.83,-84.8 42.17,-84.8 42.17,-48.8 109.83,-48.8 109.83,-84.8"/>
<text text-anchor="middle" x="76" y="-62.6" font-family="Times,serif" font-size="14.00">TitlePipe</text>
</g>
<!-- MainPipesModule -->
<g id="node2" class="node">
<title>MainPipesModule</title>
<polygon fill="#8dd3c7" stroke="black" points="135.93,-149.8 132.93,-153.8 111.93,-153.8 108.93,-149.8 16.07,-149.8 16.07,-113.8 135.93,-113.8 135.93,-149.8"/>
<text text-anchor="middle" x="76" y="-127.6" font-family="Times,serif" font-size="14.00">MainPipesModule</text>
</g>
<!-- TitlePipe&#45;&gt;MainPipesModule -->
<g id="edge1" class="edge">
<title>TitlePipe&#45;&gt;MainPipesModule</title>
<path fill="none" stroke="black" d="M76,-84.91C76,-84.91 76,-103.79 76,-103.79"/>
<polygon fill="black" stroke="black" points="72.5,-103.79 76,-113.79 79.5,-103.79 72.5,-103.79"/>
</g>
<!-- TitlePipe  -->
<g id="node3" class="node">
<title>TitlePipe </title>
<polygon fill="#fb8072" stroke="black" points="111.33,-214.8 40.67,-214.8 40.67,-178.8 111.33,-178.8 111.33,-214.8"/>
<text text-anchor="middle" x="76" y="-192.6" font-family="Times,serif" font-size="14.00">TitlePipe </text>
</g>
<!-- MainPipesModule&#45;&gt;TitlePipe  -->
<g id="edge2" class="edge">
<title>MainPipesModule&#45;&gt;TitlePipe </title>
<path fill="none" stroke="black" stroke-dasharray="5,2" d="M76,-149.91C76,-149.91 76,-168.79 76,-168.79"/>
<polygon fill="black" stroke="black" points="72.5,-168.79 76,-178.79 79.5,-168.79 72.5,-168.79"/>
</g>
</g>
</svg>
