<?xml version="1.0" encoding="UTF-8" standalone="no"?>
<!DOCTYPE svg PUBLIC "-//W3C//DTD SVG 1.1//EN"
 "http://www.w3.org/Graphics/SVG/1.1/DTD/svg11.dtd">
<!-- Generated by graphviz version 2.47.3 (20210619.1520)
 -->
<!-- Title: dependencies Pages: 1 -->
<svg width="2356pt" height="247pt"
 viewBox="0.00 0.00 2356.00 246.80" xmlns="http://www.w3.org/2000/svg" xmlns:xlink="http://www.w3.org/1999/xlink">
<g id="graph0" class="graph" transform="scale(1 1) rotate(0) translate(4 242.8)">
<title>dependencies</title>
<polygon fill="white" stroke="transparent" points="-4,4 -4,-242.8 2352,-242.8 2352,4 -4,4"/>
<text text-anchor="middle" x="1174" y="-8.2" font-family="sans-serif" font-size="14.00">dependencies</text>
<g id="clust1" class="cluster">
<title>cluster_ChartsModule</title>
<polygon fill="none" stroke="black" stroke-dasharray="1,5" points="8,-32.8 8,-230.8 2340,-230.8 2340,-32.8 8,-32.8"/>
</g>
<g id="clust2" class="cluster">
<title>cluster_ChartsModule_declarations</title>
<polygon fill="none" stroke="black" points="44,-40.8 44,-92.8 2314,-92.8 2314,-40.8 44,-40.8"/>
</g>
<g id="clust16" class="cluster">
<title>cluster_ChartsModule_exports</title>
<polygon fill="none" stroke="black" points="16,-170.8 16,-222.8 2332,-222.8 2332,-170.8 16,-170.8"/>
</g>
<!-- AreaChartComponent -->
<g id="node1" class="node">
<title>AreaChartComponent</title>
<polygon fill="#ffffb3" stroke="black" points="2305.63,-84.8 2166.37,-84.8 2166.37,-48.8 2305.63,-48.8 2305.63,-84.8"/>
<text text-anchor="middle" x="2236" y="-62.6" font-family="Times,serif" font-size="14.00">AreaChartComponent</text>
</g>
<!-- ChartsModule -->
<g id="node13" class="node">
<title>ChartsModule</title>
<polygon fill="#8dd3c7" stroke="black" points="1165.1,-149.8 1162.1,-153.8 1141.1,-153.8 1138.1,-149.8 1068.9,-149.8 1068.9,-113.8 1165.1,-113.8 1165.1,-149.8"/>
<text text-anchor="middle" x="1117" y="-127.6" font-family="Times,serif" font-size="14.00">ChartsModule</text>
</g>
<!-- AreaChartComponent&#45;&gt;ChartsModule -->
<g id="edge1" class="edge">
<title>AreaChartComponent&#45;&gt;ChartsModule</title>
<path fill="none" stroke="black" d="M2173.31,-84.97C2173.31,-103.89 2173.31,-130.8 2173.31,-130.8 2173.31,-130.8 1175.13,-130.8 1175.13,-130.8"/>
<polygon fill="black" stroke="black" points="1175.13,-127.3 1165.13,-130.8 1175.13,-134.3 1175.13,-127.3"/>
</g>
<!-- BarChartComponent -->
<g id="node2" class="node">
<title>BarChartComponent</title>
<polygon fill="#ffffb3" stroke="black" points="2148.15,-84.8 2015.85,-84.8 2015.85,-48.8 2148.15,-48.8 2148.15,-84.8"/>
<text text-anchor="middle" x="2082" y="-62.6" font-family="Times,serif" font-size="14.00">BarChartComponent</text>
</g>
<!-- BarChartComponent&#45;&gt;ChartsModule -->
<g id="edge2" class="edge">
<title>BarChartComponent&#45;&gt;ChartsModule</title>
<path fill="none" stroke="black" d="M2020.8,-85.1C2020.8,-103.07 2020.8,-127.8 2020.8,-127.8 2020.8,-127.8 1175.27,-127.8 1175.27,-127.8"/>
<polygon fill="black" stroke="black" points="1175.27,-124.3 1165.27,-127.8 1175.27,-131.3 1175.27,-124.3"/>
</g>
<!-- ChartAirflowVsDpComponent -->
<g id="node3" class="node">
<title>ChartAirflowVsDpComponent</title>
<polygon fill="#ffffb3" stroke="black" points="1997.91,-84.8 1808.09,-84.8 1808.09,-48.8 1997.91,-48.8 1997.91,-84.8"/>
<text text-anchor="middle" x="1903" y="-62.6" font-family="Times,serif" font-size="14.00">ChartAirflowVsDpComponent</text>
</g>
<!-- ChartAirflowVsDpComponent&#45;&gt;ChartsModule -->
<g id="edge3" class="edge">
<title>ChartAirflowVsDpComponent&#45;&gt;ChartsModule</title>
<path fill="none" stroke="black" d="M1936.65,-84.82C1936.65,-102.17 1936.65,-125.8 1936.65,-125.8 1936.65,-125.8 1175.21,-125.8 1175.21,-125.8"/>
<polygon fill="black" stroke="black" points="1175.21,-122.3 1165.21,-125.8 1175.21,-129.3 1175.21,-122.3"/>
</g>
<!-- ChartCostVsTimeComponent -->
<g id="node4" class="node">
<title>ChartCostVsTimeComponent</title>
<polygon fill="#ffffb3" stroke="black" points="1790.71,-84.8 1607.29,-84.8 1607.29,-48.8 1790.71,-48.8 1790.71,-84.8"/>
<text text-anchor="middle" x="1699" y="-62.6" font-family="Times,serif" font-size="14.00">ChartCostVsTimeComponent</text>
</g>
<!-- ChartCostVsTimeComponent&#45;&gt;ChartsModule -->
<g id="edge4" class="edge">
<title>ChartCostVsTimeComponent&#45;&gt;ChartsModule</title>
<path fill="none" stroke="black" d="M1730.28,-84.83C1730.28,-101.2 1730.28,-122.8 1730.28,-122.8 1730.28,-122.8 1175.12,-122.8 1175.12,-122.8"/>
<polygon fill="black" stroke="black" points="1175.12,-119.3 1165.12,-122.8 1175.12,-126.3 1175.12,-119.3"/>
</g>
<!-- ChartDpVsTimeComponent -->
<g id="node5" class="node">
<title>ChartDpVsTimeComponent</title>
<polygon fill="#ffffb3" stroke="black" points="1589.14,-84.8 1414.86,-84.8 1414.86,-48.8 1589.14,-48.8 1589.14,-84.8"/>
<text text-anchor="middle" x="1502" y="-62.6" font-family="Times,serif" font-size="14.00">ChartDpVsTimeComponent</text>
</g>
<!-- ChartDpVsTimeComponent&#45;&gt;ChartsModule -->
<g id="edge5" class="edge">
<title>ChartDpVsTimeComponent&#45;&gt;ChartsModule</title>
<path fill="none" stroke="black" d="M1531.11,-85.04C1531.11,-100.37 1531.11,-119.8 1531.11,-119.8 1531.11,-119.8 1175.31,-119.8 1175.31,-119.8"/>
<polygon fill="black" stroke="black" points="1175.31,-116.3 1165.31,-119.8 1175.31,-123.3 1175.31,-116.3"/>
</g>
<!-- ChartDustVsDpComponent -->
<g id="node6" class="node">
<title>ChartDustVsDpComponent</title>
<polygon fill="#ffffb3" stroke="black" points="1396.54,-84.8 1225.46,-84.8 1225.46,-48.8 1396.54,-48.8 1396.54,-84.8"/>
<text text-anchor="middle" x="1311" y="-62.6" font-family="Times,serif" font-size="14.00">ChartDustVsDpComponent</text>
</g>
<!-- ChartDustVsDpComponent&#45;&gt;ChartsModule -->
<g id="edge6" class="edge">
<title>ChartDustVsDpComponent&#45;&gt;ChartsModule</title>
<path fill="none" stroke="black" d="M1281.99,-84.85C1281.99,-99.17 1281.99,-116.8 1281.99,-116.8 1281.99,-116.8 1175.17,-116.8 1175.17,-116.8"/>
<polygon fill="black" stroke="black" points="1175.17,-113.3 1165.17,-116.8 1175.17,-120.3 1175.17,-113.3"/>
</g>
<!-- ComparisonBarChartComponent -->
<g id="node7" class="node">
<title>ComparisonBarChartComponent</title>
<polygon fill="#ffffb3" stroke="black" points="1207.58,-84.8 1006.42,-84.8 1006.42,-48.8 1207.58,-48.8 1207.58,-84.8"/>
<text text-anchor="middle" x="1107" y="-62.6" font-family="Times,serif" font-size="14.00">ComparisonBarChartComponent</text>
</g>
<!-- ComparisonBarChartComponent&#45;&gt;ChartsModule -->
<g id="edge7" class="edge">
<title>ComparisonBarChartComponent&#45;&gt;ChartsModule</title>
<path fill="none" stroke="black" d="M1117,-84.91C1117,-84.91 1117,-103.79 1117,-103.79"/>
<polygon fill="black" stroke="black" points="1113.5,-103.79 1117,-113.79 1120.5,-103.79 1113.5,-103.79"/>
</g>
<!-- ComparisonDpVsTimeChartComponent -->
<g id="node8" class="node">
<title>ComparisonDpVsTimeChartComponent</title>
<polygon fill="#ffffb3" stroke="black" points="988.58,-84.8 745.42,-84.8 745.42,-48.8 988.58,-48.8 988.58,-84.8"/>
<text text-anchor="middle" x="867" y="-62.6" font-family="Times,serif" font-size="14.00">ComparisonDpVsTimeChartComponent</text>
</g>
<!-- ComparisonDpVsTimeChartComponent&#45;&gt;ChartsModule -->
<g id="edge8" class="edge">
<title>ComparisonDpVsTimeChartComponent&#45;&gt;ChartsModule</title>
<path fill="none" stroke="black" d="M983.91,-84.92C983.91,-99.58 983.91,-117.8 983.91,-117.8 983.91,-117.8 1058.58,-117.8 1058.58,-117.8"/>
<polygon fill="black" stroke="black" points="1058.58,-121.3 1068.58,-117.8 1058.58,-114.3 1058.58,-121.3"/>
</g>
<!-- FrequencyChartComponent -->
<g id="node9" class="node">
<title>FrequencyChartComponent</title>
<polygon fill="#ffffb3" stroke="black" points="727.52,-84.8 556.48,-84.8 556.48,-48.8 727.52,-48.8 727.52,-84.8"/>
<text text-anchor="middle" x="642" y="-62.6" font-family="Times,serif" font-size="14.00">FrequencyChartComponent</text>
</g>
<!-- FrequencyChartComponent&#45;&gt;ChartsModule -->
<g id="edge9" class="edge">
<title>FrequencyChartComponent&#45;&gt;ChartsModule</title>
<path fill="none" stroke="black" d="M721.14,-85.08C721.14,-100.75 721.14,-120.8 721.14,-120.8 721.14,-120.8 1058.86,-120.8 1058.86,-120.8"/>
<polygon fill="black" stroke="black" points="1058.86,-124.3 1068.86,-120.8 1058.86,-117.3 1058.86,-124.3"/>
</g>
<!-- GaugeChartComponent -->
<g id="node10" class="node">
<title>GaugeChartComponent</title>
<polygon fill="#ffffb3" stroke="black" points="538.47,-84.8 389.53,-84.8 389.53,-48.8 538.47,-48.8 538.47,-84.8"/>
<text text-anchor="middle" x="464" y="-62.6" font-family="Times,serif" font-size="14.00">GaugeChartComponent</text>
</g>
<!-- GaugeChartComponent&#45;&gt;ChartsModule -->
<g id="edge10" class="edge">
<title>GaugeChartComponent&#45;&gt;ChartsModule</title>
<path fill="none" stroke="black" d="M529.86,-84.84C529.86,-101.53 529.86,-123.8 529.86,-123.8 529.86,-123.8 1058.7,-123.8 1058.7,-123.8"/>
<polygon fill="black" stroke="black" points="1058.7,-127.3 1068.7,-123.8 1058.7,-120.3 1058.7,-127.3"/>
</g>
<!-- HistogramChartComponent -->
<g id="node11" class="node">
<title>HistogramChartComponent</title>
<polygon fill="#ffffb3" stroke="black" points="371.53,-84.8 200.47,-84.8 200.47,-48.8 371.53,-48.8 371.53,-84.8"/>
<text text-anchor="middle" x="286" y="-62.6" font-family="Times,serif" font-size="14.00">HistogramChartComponent</text>
</g>
<!-- HistogramChartComponent&#45;&gt;ChartsModule -->
<g id="edge11" class="edge">
<title>HistogramChartComponent&#45;&gt;ChartsModule</title>
<path fill="none" stroke="black" d="M359.64,-85.1C359.64,-103.07 359.64,-127.8 359.64,-127.8 359.64,-127.8 1058.76,-127.8 1058.76,-127.8"/>
<polygon fill="black" stroke="black" points="1058.76,-131.3 1068.76,-127.8 1058.76,-124.3 1058.76,-131.3"/>
</g>
<!-- PieChartComponent -->
<g id="node12" class="node">
<title>PieChartComponent</title>
<polygon fill="#ffffb3" stroke="black" points="182.32,-84.8 51.68,-84.8 51.68,-48.8 182.32,-48.8 182.32,-84.8"/>
<text text-anchor="middle" x="117" y="-62.6" font-family="Times,serif" font-size="14.00">PieChartComponent</text>
</g>
<!-- PieChartComponent&#45;&gt;ChartsModule -->
<g id="edge12" class="edge">
<title>PieChartComponent&#45;&gt;ChartsModule</title>
<path fill="none" stroke="black" d="M166.7,-84.97C166.7,-103.89 166.7,-130.8 166.7,-130.8 166.7,-130.8 1058.9,-130.8 1058.9,-130.8"/>
<polygon fill="black" stroke="black" points="1058.9,-134.3 1068.9,-130.8 1058.9,-127.3 1058.9,-134.3"/>
</g>
<!-- AreaChartComponent  -->
<g id="node14" class="node">
<title>AreaChartComponent </title>
<polygon fill="#fb8072" stroke="black" points="2323.63,-214.8 2180.37,-214.8 2180.37,-178.8 2323.63,-178.8 2323.63,-214.8"/>
<text text-anchor="middle" x="2252" y="-192.6" font-family="Times,serif" font-size="14.00">AreaChartComponent </text>
</g>
<!-- ChartsModule&#45;&gt;AreaChartComponent  -->
<g id="edge13" class="edge">
<title>ChartsModule&#45;&gt;AreaChartComponent </title>
<path fill="none" stroke="black" stroke-dasharray="5,2" d="M1165.39,-133.8C1380.94,-133.8 2243.12,-133.8 2243.12,-133.8 2243.12,-133.8 2243.12,-168.58 2243.12,-168.58"/>
<polygon fill="black" stroke="black" points="2239.63,-168.58 2243.12,-178.58 2246.63,-168.58 2239.63,-168.58"/>
</g>
<!-- BarChartComponent  -->
<g id="node15" class="node">
<title>BarChartComponent </title>
<polygon fill="#fb8072" stroke="black" points="2162.15,-214.8 2025.85,-214.8 2025.85,-178.8 2162.15,-178.8 2162.15,-214.8"/>
<text text-anchor="middle" x="2094" y="-192.6" font-family="Times,serif" font-size="14.00">BarChartComponent </text>
</g>
<!-- ChartsModule&#45;&gt;BarChartComponent  -->
<g id="edge14" class="edge">
<title>ChartsModule&#45;&gt;BarChartComponent </title>
<path fill="none" stroke="black" stroke-dasharray="5,2" d="M1165.11,-136.8C1360.86,-136.8 2087.12,-136.8 2087.12,-136.8 2087.12,-136.8 2087.12,-168.8 2087.12,-168.8"/>
<polygon fill="black" stroke="black" points="2083.63,-168.8 2087.12,-178.8 2090.63,-168.8 2083.63,-168.8"/>
</g>
<!-- ChartAirflowVsDpComponent  -->
<g id="node16" class="node">
<title>ChartAirflowVsDpComponent </title>
<polygon fill="#fb8072" stroke="black" points="2007.41,-214.8 1814.59,-214.8 1814.59,-178.8 2007.41,-178.8 2007.41,-214.8"/>
<text text-anchor="middle" x="1911" y="-192.6" font-family="Times,serif" font-size="14.00">ChartAirflowVsDpComponent </text>
</g>
<!-- ChartsModule&#45;&gt;ChartAirflowVsDpComponent  -->
<g id="edge15" class="edge">
<title>ChartsModule&#45;&gt;ChartAirflowVsDpComponent </title>
<path fill="none" stroke="black" stroke-dasharray="5,2" d="M1165.32,-138.8C1332.41,-138.8 1875.6,-138.8 1875.6,-138.8 1875.6,-138.8 1875.6,-168.77 1875.6,-168.77"/>
<polygon fill="black" stroke="black" points="1872.1,-168.77 1875.6,-178.77 1879.1,-168.77 1872.1,-168.77"/>
</g>
<!-- ChartCostVsTimeComponent  -->
<g id="node17" class="node">
<title>ChartCostVsTimeComponent </title>
<polygon fill="#fb8072" stroke="black" points="1796.21,-214.8 1609.79,-214.8 1609.79,-178.8 1796.21,-178.8 1796.21,-214.8"/>
<text text-anchor="middle" x="1703" y="-192.6" font-family="Times,serif" font-size="14.00">ChartCostVsTimeComponent </text>
</g>
<!-- ChartsModule&#45;&gt;ChartCostVsTimeComponent  -->
<g id="edge16" class="edge">
<title>ChartsModule&#45;&gt;ChartCostVsTimeComponent </title>
<path fill="none" stroke="black" stroke-dasharray="5,2" d="M1165.1,-141.8C1299.64,-141.8 1669.97,-141.8 1669.97,-141.8 1669.97,-141.8 1669.97,-168.79 1669.97,-168.79"/>
<polygon fill="black" stroke="black" points="1666.47,-168.79 1669.97,-178.79 1673.47,-168.79 1666.47,-168.79"/>
</g>
<!-- ChartDpVsTimeComponent  -->
<g id="node18" class="node">
<title>ChartDpVsTimeComponent </title>
<polygon fill="#fb8072" stroke="black" points="1592.14,-214.8 1413.86,-214.8 1413.86,-178.8 1592.14,-178.8 1592.14,-214.8"/>
<text text-anchor="middle" x="1503" y="-192.6" font-family="Times,serif" font-size="14.00">ChartDpVsTimeComponent </text>
</g>
<!-- ChartsModule&#45;&gt;ChartDpVsTimeComponent  -->
<g id="edge17" class="edge">
<title>ChartsModule&#45;&gt;ChartDpVsTimeComponent </title>
<path fill="none" stroke="black" stroke-dasharray="5,2" d="M1165.37,-144.8C1262.68,-144.8 1472.89,-144.8 1472.89,-144.8 1472.89,-144.8 1472.89,-168.61 1472.89,-168.61"/>
<polygon fill="black" stroke="black" points="1469.39,-168.61 1472.89,-178.61 1476.39,-168.61 1469.39,-168.61"/>
</g>
<!-- ChartDustVsDpComponent  -->
<g id="node19" class="node">
<title>ChartDustVsDpComponent </title>
<polygon fill="#fb8072" stroke="black" points="1395.53,-214.8 1220.47,-214.8 1220.47,-178.8 1395.53,-178.8 1395.53,-214.8"/>
<text text-anchor="middle" x="1308" y="-192.6" font-family="Times,serif" font-size="14.00">ChartDustVsDpComponent </text>
</g>
<!-- ChartsModule&#45;&gt;ChartDustVsDpComponent  -->
<g id="edge18" class="edge">
<title>ChartsModule&#45;&gt;ChartDustVsDpComponent </title>
<path fill="none" stroke="black" stroke-dasharray="5,2" d="M1165.12,-147.8C1230.34,-147.8 1338.76,-147.8 1338.76,-147.8 1338.76,-147.8 1338.76,-168.55 1338.76,-168.55"/>
<polygon fill="black" stroke="black" points="1335.26,-168.55 1338.76,-178.55 1342.26,-168.55 1335.26,-168.55"/>
</g>
<!-- ComparisonBarChartComponent  -->
<g id="node20" class="node">
<title>ComparisonBarChartComponent </title>
<polygon fill="#fb8072" stroke="black" points="1202.08,-214.8 997.92,-214.8 997.92,-178.8 1202.08,-178.8 1202.08,-214.8"/>
<text text-anchor="middle" x="1100" y="-192.6" font-family="Times,serif" font-size="14.00">ComparisonBarChartComponent </text>
</g>
<!-- ChartsModule&#45;&gt;ComparisonBarChartComponent  -->
<g id="edge19" class="edge">
<title>ChartsModule&#45;&gt;ComparisonBarChartComponent </title>
<path fill="none" stroke="black" stroke-dasharray="5,2" d="M1117,-149.91C1117,-149.91 1117,-168.79 1117,-168.79"/>
<polygon fill="black" stroke="black" points="1113.5,-168.79 1117,-178.79 1120.5,-168.79 1113.5,-168.79"/>
</g>
<!-- ComparisonDpVsTimeChartComponent  -->
<g id="node21" class="node">
<title>ComparisonDpVsTimeChartComponent </title>
<polygon fill="#fb8072" stroke="black" points="979.08,-214.8 732.92,-214.8 732.92,-178.8 979.08,-178.8 979.08,-214.8"/>
<text text-anchor="middle" x="856" y="-192.6" font-family="Times,serif" font-size="14.00">ComparisonDpVsTimeChartComponent </text>
</g>
<!-- ChartsModule&#45;&gt;ComparisonDpVsTimeChartComponent  -->
<g id="edge20" class="edge">
<title>ChartsModule&#45;&gt;ComparisonDpVsTimeChartComponent </title>
<path fill="none" stroke="black" stroke-dasharray="5,2" d="M1068.81,-146.8C994.99,-146.8 862.38,-146.8 862.38,-146.8 862.38,-146.8 862.38,-168.75 862.38,-168.75"/>
<polygon fill="black" stroke="black" points="858.88,-168.75 862.38,-178.75 865.88,-168.75 858.88,-168.75"/>
</g>
<!-- FrequencyChartComponent  -->
<g id="node22" class="node">
<title>FrequencyChartComponent </title>
<polygon fill="#fb8072" stroke="black" points="714.52,-214.8 539.48,-214.8 539.48,-178.8 714.52,-178.8 714.52,-214.8"/>
<text text-anchor="middle" x="627" y="-192.6" font-family="Times,serif" font-size="14.00">FrequencyChartComponent </text>
</g>
<!-- ChartsModule&#45;&gt;FrequencyChartComponent  -->
<g id="edge21" class="edge">
<title>ChartsModule&#45;&gt;FrequencyChartComponent </title>
<path fill="none" stroke="black" stroke-dasharray="5,2" d="M1068.61,-143.8C946.48,-143.8 635.38,-143.8 635.38,-143.8 635.38,-143.8 635.38,-168.56 635.38,-168.56"/>
<polygon fill="black" stroke="black" points="631.88,-168.56 635.38,-178.56 638.88,-168.56 631.88,-168.56"/>
</g>
<!-- GaugeChartComponent  -->
<g id="node23" class="node">
<title>GaugeChartComponent </title>
<polygon fill="#fb8072" stroke="black" points="521.47,-214.8 368.53,-214.8 368.53,-178.8 521.47,-178.8 521.47,-214.8"/>
<text text-anchor="middle" x="445" y="-192.6" font-family="Times,serif" font-size="14.00">GaugeChartComponent </text>
</g>
<!-- ChartsModule&#45;&gt;GaugeChartComponent  -->
<g id="edge22" class="edge">
<title>ChartsModule&#45;&gt;GaugeChartComponent </title>
<path fill="none" stroke="black" stroke-dasharray="5,2" d="M1068.88,-140.8C916.63,-140.8 455.38,-140.8 455.38,-140.8 455.38,-140.8 455.38,-168.77 455.38,-168.77"/>
<polygon fill="black" stroke="black" points="451.88,-168.77 455.38,-178.77 458.88,-168.77 451.88,-168.77"/>
</g>
<!-- HistogramChartComponent  -->
<g id="node24" class="node">
<title>HistogramChartComponent </title>
<polygon fill="#fb8072" stroke="black" points="350.53,-214.8 175.47,-214.8 175.47,-178.8 350.53,-178.8 350.53,-214.8"/>
<text text-anchor="middle" x="263" y="-192.6" font-family="Times,serif" font-size="14.00">HistogramChartComponent </text>
</g>
<!-- ChartsModule&#45;&gt;HistogramChartComponent  -->
<g id="edge23" class="edge">
<title>ChartsModule&#45;&gt;HistogramChartComponent </title>
<path fill="none" stroke="black" stroke-dasharray="5,2" d="M1068.73,-136.8C889.89,-136.8 275.38,-136.8 275.38,-136.8 275.38,-136.8 275.38,-168.8 275.38,-168.8"/>
<polygon fill="black" stroke="black" points="271.88,-168.8 275.38,-178.8 278.88,-168.8 271.88,-168.8"/>
</g>
<!-- PieChartComponent  -->
<g id="node25" class="node">
<title>PieChartComponent </title>
<polygon fill="#fb8072" stroke="black" points="157.82,-214.8 24.18,-214.8 24.18,-178.8 157.82,-178.8 157.82,-214.8"/>
<text text-anchor="middle" x="91" y="-192.6" font-family="Times,serif" font-size="14.00">PieChartComponent </text>
</g>
<!-- ChartsModule&#45;&gt;PieChartComponent  -->
<g id="edge24" class="edge">
<title>ChartsModule&#45;&gt;PieChartComponent </title>
<path fill="none" stroke="black" stroke-dasharray="5,2" d="M1068.86,-133.8C867.72,-133.8 104.88,-133.8 104.88,-133.8 104.88,-133.8 104.88,-168.58 104.88,-168.58"/>
<polygon fill="black" stroke="black" points="101.38,-168.58 104.88,-178.58 108.38,-168.58 101.38,-168.58"/>
</g>
</g>
</svg>
