<?xml version="1.0" encoding="UTF-8" standalone="no"?>
<!DOCTYPE svg PUBLIC "-//W3C//DTD SVG 1.1//EN"
 "http://www.w3.org/Graphics/SVG/1.1/DTD/svg11.dtd">
<!-- Generated by graphviz version 2.47.3 (20210619.1520)
 -->
<!-- Title: dependencies Pages: 1 -->
<svg width="845pt" height="247pt"
 viewBox="0.00 0.00 845.00 246.80" xmlns="http://www.w3.org/2000/svg" xmlns:xlink="http://www.w3.org/1999/xlink">
<g id="graph0" class="graph" transform="scale(1 1) rotate(0) translate(4 242.8)">
<title>dependencies</title>
<polygon fill="white" stroke="transparent" points="-4,4 -4,-242.8 841,-242.8 841,4 -4,4"/>
<text text-anchor="middle" x="418.5" y="-8.2" font-family="sans-serif" font-size="14.00">dependencies</text>
<g id="clust1" class="cluster">
<title>cluster_ReportsModule</title>
<polygon fill="none" stroke="black" stroke-dasharray="1,5" points="8,-32.8 8,-230.8 829,-230.8 829,-32.8 8,-32.8"/>
</g>
<g id="clust7" class="cluster">
<title>cluster_ReportsModule_exports</title>
<polygon fill="none" stroke="black" points="151,-170.8 151,-222.8 547,-222.8 547,-170.8 151,-170.8"/>
</g>
<g id="clust2" class="cluster">
<title>cluster_ReportsModule_declarations</title>
<polygon fill="none" stroke="black" points="252,-40.8 252,-92.8 821,-92.8 821,-40.8 252,-40.8"/>
</g>
<g id="clust6" class="cluster">
<title>cluster_ReportsModule_imports</title>
<polygon fill="none" stroke="black" points="16,-40.8 16,-92.8 244,-92.8 244,-40.8 16,-40.8"/>
</g>
<!-- ReportFileDropperComponent -->
<g id="node1" class="node">
<title>ReportFileDropperComponent</title>
<polygon fill="#ffffb3" stroke="black" points="812.86,-84.8 625.14,-84.8 625.14,-48.8 812.86,-48.8 812.86,-84.8"/>
<text text-anchor="middle" x="719" y="-62.6" font-family="Times,serif" font-size="14.00">ReportFileDropperComponent</text>
</g>
<!-- ReportsModule -->
<g id="node4" class="node">
<title>ReportsModule</title>
<polygon fill="#8dd3c7" stroke="black" points="394.6,-149.8 391.6,-153.8 370.6,-153.8 367.6,-149.8 291.4,-149.8 291.4,-113.8 394.6,-113.8 394.6,-149.8"/>
<text text-anchor="middle" x="343" y="-127.6" font-family="Times,serif" font-size="14.00">ReportsModule</text>
</g>
<!-- ReportFileDropperComponent&#45;&gt;ReportsModule -->
<g id="edge1" class="edge">
<title>ReportFileDropperComponent&#45;&gt;ReportsModule</title>
<path fill="none" stroke="black" d="M719,-85.08C719,-106.12 719,-137.8 719,-137.8 719,-137.8 404.89,-137.8 404.89,-137.8"/>
<polygon fill="black" stroke="black" points="404.89,-134.3 394.89,-137.8 404.89,-141.3 404.89,-134.3"/>
</g>
<!-- ReportReviewComponent -->
<g id="node2" class="node">
<title>ReportReviewComponent</title>
<polygon fill="#ffffb3" stroke="black" points="607.2,-84.8 444.8,-84.8 444.8,-48.8 607.2,-48.8 607.2,-84.8"/>
<text text-anchor="middle" x="526" y="-62.6" font-family="Times,serif" font-size="14.00">ReportReviewComponent</text>
</g>
<!-- ReportReviewComponent&#45;&gt;ReportsModule -->
<g id="edge2" class="edge">
<title>ReportReviewComponent&#45;&gt;ReportsModule</title>
<path fill="none" stroke="black" d="M491.79,-84.82C491.79,-102.17 491.79,-125.8 491.79,-125.8 491.79,-125.8 404.62,-125.8 404.62,-125.8"/>
<polygon fill="black" stroke="black" points="404.62,-122.3 394.62,-125.8 404.62,-129.3 404.62,-122.3"/>
</g>
<!-- ValidatorMenuComponent -->
<g id="node3" class="node">
<title>ValidatorMenuComponent</title>
<polygon fill="#ffffb3" stroke="black" points="426.36,-84.8 259.64,-84.8 259.64,-48.8 426.36,-48.8 426.36,-84.8"/>
<text text-anchor="middle" x="343" y="-62.6" font-family="Times,serif" font-size="14.00">ValidatorMenuComponent</text>
</g>
<!-- ValidatorMenuComponent&#45;&gt;ReportsModule -->
<g id="edge3" class="edge">
<title>ValidatorMenuComponent&#45;&gt;ReportsModule</title>
<path fill="none" stroke="black" d="M343,-84.91C343,-84.91 343,-103.79 343,-103.79"/>
<polygon fill="black" stroke="black" points="339.5,-103.79 343,-113.79 346.5,-103.79 339.5,-103.79"/>
</g>
<!-- ReportFileDropperComponent  -->
<g id="node7" class="node">
<title>ReportFileDropperComponent </title>
<polygon fill="#fb8072" stroke="black" points="538.86,-214.8 347.14,-214.8 347.14,-178.8 538.86,-178.8 538.86,-214.8"/>
<text text-anchor="middle" x="443" y="-192.6" font-family="Times,serif" font-size="14.00">ReportFileDropperComponent </text>
</g>
<!-- ReportsModule&#45;&gt;ReportFileDropperComponent  -->
<g id="edge6" class="edge">
<title>ReportsModule&#45;&gt;ReportFileDropperComponent </title>
<path fill="none" stroke="black" stroke-dasharray="5,2" d="M370.94,-149.91C370.94,-149.91 370.94,-168.79 370.94,-168.79"/>
<polygon fill="black" stroke="black" points="367.44,-168.79 370.94,-178.79 374.44,-168.79 367.44,-168.79"/>
</g>
<!-- ValidatorMenuComponent  -->
<g id="node8" class="node">
<title>ValidatorMenuComponent </title>
<polygon fill="#fb8072" stroke="black" points="329.36,-214.8 158.64,-214.8 158.64,-178.8 329.36,-178.8 329.36,-214.8"/>
<text text-anchor="middle" x="244" y="-192.6" font-family="Times,serif" font-size="14.00">ValidatorMenuComponent </text>
</g>
<!-- ReportsModule&#45;&gt;ValidatorMenuComponent  -->
<g id="edge7" class="edge">
<title>ReportsModule&#45;&gt;ValidatorMenuComponent </title>
<path fill="none" stroke="black" stroke-dasharray="5,2" d="M310.32,-149.91C310.32,-149.91 310.32,-168.79 310.32,-168.79"/>
<polygon fill="black" stroke="black" points="306.82,-168.79 310.32,-178.79 313.82,-168.79 306.82,-168.79"/>
</g>
<!-- ChartsModule -->
<g id="node5" class="node">
<title>ChartsModule</title>
<polygon fill="#8dd3c7" stroke="black" points="236.1,-84.8 233.1,-88.8 212.1,-88.8 209.1,-84.8 139.9,-84.8 139.9,-48.8 236.1,-48.8 236.1,-84.8"/>
<text text-anchor="middle" x="188" y="-62.6" font-family="Times,serif" font-size="14.00">ChartsModule</text>
</g>
<!-- ChartsModule&#45;&gt;ReportsModule -->
<g id="edge4" class="edge">
<title>ChartsModule&#45;&gt;ReportsModule</title>
<path fill="none" stroke="black" d="M197.43,-84.82C197.43,-102.17 197.43,-125.8 197.43,-125.8 197.43,-125.8 281.27,-125.8 281.27,-125.8"/>
<polygon fill="black" stroke="black" points="281.27,-129.3 291.27,-125.8 281.27,-122.3 281.27,-129.3"/>
</g>
<!-- SharedModule -->
<g id="node6" class="node">
<title>SharedModule</title>
<polygon fill="#8dd3c7" stroke="black" points="122.42,-84.8 119.42,-88.8 98.42,-88.8 95.42,-84.8 23.58,-84.8 23.58,-48.8 122.42,-48.8 122.42,-84.8"/>
<text text-anchor="middle" x="73" y="-62.6" font-family="Times,serif" font-size="14.00">SharedModule</text>
</g>
<!-- SharedModule&#45;&gt;ReportsModule -->
<g id="edge5" class="edge">
<title>SharedModule&#45;&gt;ReportsModule</title>
<path fill="none" stroke="black" d="M73,-85.08C73,-106.12 73,-137.8 73,-137.8 73,-137.8 281.26,-137.8 281.26,-137.8"/>
<polygon fill="black" stroke="black" points="281.26,-141.3 291.26,-137.8 281.26,-134.3 281.26,-141.3"/>
</g>
</g>
</svg>
