<?xml version="1.0" encoding="UTF-8" standalone="no"?>
<!DOCTYPE svg PUBLIC "-//W3C//DTD SVG 1.1//EN"
 "http://www.w3.org/Graphics/SVG/1.1/DTD/svg11.dtd">
<!-- Generated by graphviz version 2.47.3 (20210619.1520)
 -->
<!-- Title: dependencies Pages: 1 -->
<svg width="2077pt" height="174pt"
 viewBox="0.00 0.00 2077.00 173.80" xmlns="http://www.w3.org/2000/svg" xmlns:xlink="http://www.w3.org/1999/xlink">
<g id="graph0" class="graph" transform="scale(1 1) rotate(0) translate(4 169.8)">
<title>dependencies</title>
<polygon fill="white" stroke="transparent" points="-4,4 -4,-169.8 2073,-169.8 2073,4 -4,4"/>
<text text-anchor="middle" x="1034.5" y="-8.2" font-family="sans-serif" font-size="14.00">dependencies</text>
<g id="clust1" class="cluster">
<title>cluster_AuthModule</title>
<polygon fill="none" stroke="black" stroke-dasharray="1,5" points="8,-32.8 8,-157.8 2061,-157.8 2061,-32.8 8,-32.8"/>
</g>
<g id="clust16" class="cluster">
<title>cluster_AuthModule_providers</title>
<polygon fill="none" stroke="black" points="1909,-40.8 1909,-92.8 2053,-92.8 2053,-40.8 1909,-40.8"/>
</g>
<g id="clust13" class="cluster">
<title>cluster_AuthModule_imports</title>
<polygon fill="none" stroke="black" points="1787,-40.8 1787,-92.8 1901,-92.8 1901,-40.8 1787,-40.8"/>
</g>
<g id="clust2" class="cluster">
<title>cluster_AuthModule_declarations</title>
<polygon fill="none" stroke="black" points="16,-40.8 16,-92.8 1779,-92.8 1779,-40.8 16,-40.8"/>
</g>
<!-- ConfirmRegisterPageComponent -->
<g id="node1" class="node">
<title>ConfirmRegisterPageComponent</title>
<polygon fill="#ffffb3" stroke="black" points="1771.14,-84.8 1568.86,-84.8 1568.86,-48.8 1771.14,-48.8 1771.14,-84.8"/>
<text text-anchor="middle" x="1670" y="-62.6" font-family="Times,serif" font-size="14.00">ConfirmRegisterPageComponent</text>
</g>
<!-- AuthModule -->
<g id="node11" class="node">
<title>AuthModule</title>
<polygon fill="#8dd3c7" stroke="black" points="1164.55,-149.8 1161.55,-153.8 1140.55,-153.8 1137.55,-149.8 1077.45,-149.8 1077.45,-113.8 1164.55,-113.8 1164.55,-149.8"/>
<text text-anchor="middle" x="1121" y="-127.6" font-family="Times,serif" font-size="14.00">AuthModule</text>
</g>
<!-- ConfirmRegisterPageComponent&#45;&gt;AuthModule -->
<g id="edge1" class="edge">
<title>ConfirmRegisterPageComponent&#45;&gt;AuthModule</title>
<path fill="none" stroke="black" d="M1670,-84.91C1670,-104.14 1670,-131.8 1670,-131.8 1670,-131.8 1175,-131.8 1175,-131.8"/>
<polygon fill="black" stroke="black" points="1175,-128.3 1165,-131.8 1175,-135.3 1175,-128.3"/>
</g>
<!-- ContactComponent -->
<g id="node2" class="node">
<title>ContactComponent</title>
<polygon fill="#ffffb3" stroke="black" points="1550.38,-84.8 1425.62,-84.8 1425.62,-48.8 1550.38,-48.8 1550.38,-84.8"/>
<text text-anchor="middle" x="1488" y="-62.6" font-family="Times,serif" font-size="14.00">ContactComponent</text>
</g>
<!-- ContactComponent&#45;&gt;AuthModule -->
<g id="edge2" class="edge">
<title>ContactComponent&#45;&gt;AuthModule</title>
<path fill="none" stroke="black" d="M1488,-84.82C1488,-102.17 1488,-125.8 1488,-125.8 1488,-125.8 1174.9,-125.8 1174.9,-125.8"/>
<polygon fill="black" stroke="black" points="1174.9,-122.3 1164.9,-125.8 1174.9,-129.3 1174.9,-122.3"/>
</g>
<!-- FaqsComponent -->
<g id="node3" class="node">
<title>FaqsComponent</title>
<polygon fill="#ffffb3" stroke="black" points="1407.77,-84.8 1300.23,-84.8 1300.23,-48.8 1407.77,-48.8 1407.77,-84.8"/>
<text text-anchor="middle" x="1354" y="-62.6" font-family="Times,serif" font-size="14.00">FaqsComponent</text>
</g>
<!-- FaqsComponent&#45;&gt;AuthModule -->
<g id="edge3" class="edge">
<title>FaqsComponent&#45;&gt;AuthModule</title>
<path fill="none" stroke="black" d="M1354,-85.04C1354,-100.37 1354,-119.8 1354,-119.8 1354,-119.8 1174.55,-119.8 1174.55,-119.8"/>
<polygon fill="black" stroke="black" points="1174.55,-116.3 1164.55,-119.8 1174.55,-123.3 1174.55,-116.3"/>
</g>
<!-- LandingPageComponent -->
<g id="node4" class="node">
<title>LandingPageComponent</title>
<polygon fill="#ffffb3" stroke="black" points="1282.7,-84.8 1127.3,-84.8 1127.3,-48.8 1282.7,-48.8 1282.7,-84.8"/>
<text text-anchor="middle" x="1205" y="-62.6" font-family="Times,serif" font-size="14.00">LandingPageComponent</text>
</g>
<!-- LandingPageComponent&#45;&gt;AuthModule -->
<g id="edge4" class="edge">
<title>LandingPageComponent&#45;&gt;AuthModule</title>
<path fill="none" stroke="black" d="M1146.09,-84.91C1146.09,-84.91 1146.09,-103.79 1146.09,-103.79"/>
<polygon fill="black" stroke="black" points="1142.59,-103.79 1146.09,-113.79 1149.59,-103.79 1142.59,-103.79"/>
</g>
<!-- LoginPageComponent -->
<g id="node5" class="node">
<title>LoginPageComponent</title>
<polygon fill="#ffffb3" stroke="black" points="1108.99,-84.8 967.01,-84.8 967.01,-48.8 1108.99,-48.8 1108.99,-84.8"/>
<text text-anchor="middle" x="1038" y="-62.6" font-family="Times,serif" font-size="14.00">LoginPageComponent</text>
</g>
<!-- LoginPageComponent&#45;&gt;AuthModule -->
<g id="edge5" class="edge">
<title>LoginPageComponent&#45;&gt;AuthModule</title>
<path fill="none" stroke="black" d="M1093.11,-84.91C1093.11,-84.91 1093.11,-103.79 1093.11,-103.79"/>
<polygon fill="black" stroke="black" points="1089.61,-103.79 1093.11,-113.79 1096.61,-103.79 1089.61,-103.79"/>
</g>
<!-- NewPasswordComponent -->
<g id="node6" class="node">
<title>NewPasswordComponent</title>
<polygon fill="#ffffb3" stroke="black" points="948.91,-84.8 787.09,-84.8 787.09,-48.8 948.91,-48.8 948.91,-84.8"/>
<text text-anchor="middle" x="868" y="-62.6" font-family="Times,serif" font-size="14.00">NewPasswordComponent</text>
</g>
<!-- NewPasswordComponent&#45;&gt;AuthModule -->
<g id="edge6" class="edge">
<title>NewPasswordComponent&#45;&gt;AuthModule</title>
<path fill="none" stroke="black" d="M868,-85.04C868,-100.37 868,-119.8 868,-119.8 868,-119.8 1067.22,-119.8 1067.22,-119.8"/>
<polygon fill="black" stroke="black" points="1067.22,-123.3 1077.22,-119.8 1067.22,-116.3 1067.22,-123.3"/>
</g>
<!-- ProductComponent -->
<g id="node7" class="node">
<title>ProductComponent</title>
<polygon fill="#ffffb3" stroke="black" points="769.38,-84.8 644.62,-84.8 644.62,-48.8 769.38,-48.8 769.38,-84.8"/>
<text text-anchor="middle" x="707" y="-62.6" font-family="Times,serif" font-size="14.00">ProductComponent</text>
</g>
<!-- ProductComponent&#45;&gt;AuthModule -->
<g id="edge7" class="edge">
<title>ProductComponent&#45;&gt;AuthModule</title>
<path fill="none" stroke="black" d="M707,-84.82C707,-102.17 707,-125.8 707,-125.8 707,-125.8 1067.09,-125.8 1067.09,-125.8"/>
<polygon fill="black" stroke="black" points="1067.09,-129.3 1077.09,-125.8 1067.09,-122.3 1067.09,-129.3"/>
</g>
<!-- RecoverPasswordPageComponent -->
<g id="node8" class="node">
<title>RecoverPasswordPageComponent</title>
<polygon fill="#ffffb3" stroke="black" points="626.34,-84.8 417.66,-84.8 417.66,-48.8 626.34,-48.8 626.34,-84.8"/>
<text text-anchor="middle" x="522" y="-62.6" font-family="Times,serif" font-size="14.00">RecoverPasswordPageComponent</text>
</g>
<!-- RecoverPasswordPageComponent&#45;&gt;AuthModule -->
<g id="edge8" class="edge">
<title>RecoverPasswordPageComponent&#45;&gt;AuthModule</title>
<path fill="none" stroke="black" d="M522,-84.91C522,-104.14 522,-131.8 522,-131.8 522,-131.8 1067.44,-131.8 1067.44,-131.8"/>
<polygon fill="black" stroke="black" points="1067.44,-135.3 1077.44,-131.8 1067.44,-128.3 1067.44,-135.3"/>
</g>
<!-- RegisterPageComponent -->
<g id="node9" class="node">
<title>RegisterPageComponent</title>
<polygon fill="#ffffb3" stroke="black" points="399.7,-84.8 244.3,-84.8 244.3,-48.8 399.7,-48.8 399.7,-84.8"/>
<text text-anchor="middle" x="322" y="-62.6" font-family="Times,serif" font-size="14.00">RegisterPageComponent</text>
</g>
<!-- RegisterPageComponent&#45;&gt;AuthModule -->
<g id="edge9" class="edge">
<title>RegisterPageComponent&#45;&gt;AuthModule</title>
<path fill="none" stroke="black" d="M322,-85.08C322,-106.12 322,-137.8 322,-137.8 322,-137.8 1067.19,-137.8 1067.19,-137.8"/>
<polygon fill="black" stroke="black" points="1067.19,-141.3 1077.19,-137.8 1067.19,-134.3 1067.19,-141.3"/>
</g>
<!-- TermsAndConditionsComponent -->
<g id="node10" class="node">
<title>TermsAndConditionsComponent</title>
<polygon fill="#ffffb3" stroke="black" points="226.16,-84.8 23.84,-84.8 23.84,-48.8 226.16,-48.8 226.16,-84.8"/>
<text text-anchor="middle" x="125" y="-62.6" font-family="Times,serif" font-size="14.00">TermsAndConditionsComponent</text>
</g>
<!-- TermsAndConditionsComponent&#45;&gt;AuthModule -->
<g id="edge10" class="edge">
<title>TermsAndConditionsComponent&#45;&gt;AuthModule</title>
<path fill="none" stroke="black" d="M125,-84.89C125,-107.93 125,-144.8 125,-144.8 125,-144.8 1067.24,-144.8 1067.24,-144.8"/>
<polygon fill="black" stroke="black" points="1067.24,-148.3 1077.24,-144.8 1067.24,-141.3 1067.24,-148.3"/>
</g>
<!-- SharedModule -->
<g id="node12" class="node">
<title>SharedModule</title>
<polygon fill="#8dd3c7" stroke="black" points="1893.42,-84.8 1890.42,-88.8 1869.42,-88.8 1866.42,-84.8 1794.58,-84.8 1794.58,-48.8 1893.42,-48.8 1893.42,-84.8"/>
<text text-anchor="middle" x="1844" y="-62.6" font-family="Times,serif" font-size="14.00">SharedModule</text>
</g>
<!-- SharedModule&#45;&gt;AuthModule -->
<g id="edge11" class="edge">
<title>SharedModule&#45;&gt;AuthModule</title>
<path fill="none" stroke="black" d="M1844,-85.08C1844,-106.12 1844,-137.8 1844,-137.8 1844,-137.8 1174.6,-137.8 1174.6,-137.8"/>
<polygon fill="black" stroke="black" points="1174.6,-134.3 1164.6,-137.8 1174.6,-141.3 1174.6,-134.3"/>
</g>
<!-- AuthProvider -->
<g id="node13" class="node">
<title>AuthProvider</title>
<ellipse fill="#fdb462" stroke="black" cx="1981" cy="-66.8" rx="63.7" ry="18"/>
<text text-anchor="middle" x="1981" y="-62.6" font-family="Times,serif" font-size="14.00">AuthProvider</text>
</g>
<!-- AuthProvider&#45;&gt;AuthModule -->
<g id="edge12" class="edge">
<title>AuthProvider&#45;&gt;AuthModule</title>
<path fill="none" stroke="black" d="M1981,-84.89C1981,-107.93 1981,-144.8 1981,-144.8 1981,-144.8 1174.83,-144.8 1174.83,-144.8"/>
<polygon fill="black" stroke="black" points="1174.83,-141.3 1164.83,-144.8 1174.83,-148.3 1174.83,-141.3"/>
</g>
</g>
</svg>
