<?xml version="1.0" encoding="UTF-8" standalone="no"?>
<!DOCTYPE svg PUBLIC "-//W3C//DTD SVG 1.1//EN"
 "http://www.w3.org/Graphics/SVG/1.1/DTD/svg11.dtd">
<!-- Generated by graphviz version 2.47.3 (20210619.1520)
 -->
<!-- Title: dependencies Pages: 1 -->
<svg width="780pt" height="174pt"
 viewBox="0.00 0.00 780.00 173.80" xmlns="http://www.w3.org/2000/svg" xmlns:xlink="http://www.w3.org/1999/xlink">
<g id="graph0" class="graph" transform="scale(1 1) rotate(0) translate(4 169.8)">
<title>dependencies</title>
<polygon fill="white" stroke="transparent" points="-4,4 -4,-169.8 776,-169.8 776,4 -4,4"/>
<text text-anchor="middle" x="386" y="-8.2" font-family="sans-serif" font-size="14.00">dependencies</text>
<g id="clust1" class="cluster">
<title>cluster_ComparisonModule</title>
<polygon fill="none" stroke="black" stroke-dasharray="1,5" points="8,-32.8 8,-157.8 764,-157.8 764,-32.8 8,-32.8"/>
</g>
<g id="clust5" class="cluster">
<title>cluster_ComparisonModule_imports</title>
<polygon fill="none" stroke="black" points="406,-40.8 406,-92.8 756,-92.8 756,-40.8 406,-40.8"/>
</g>
<g id="clust2" class="cluster">
<title>cluster_ComparisonModule_declarations</title>
<polygon fill="none" stroke="black" points="16,-40.8 16,-92.8 398,-92.8 398,-40.8 16,-40.8"/>
</g>
<!-- ComparisonListComponent -->
<g id="node1" class="node">
<title>ComparisonListComponent</title>
<polygon fill="#ffffb3" stroke="black" points="389.55,-84.8 218.45,-84.8 218.45,-48.8 389.55,-48.8 389.55,-84.8"/>
<text text-anchor="middle" x="304" y="-62.6" font-family="Times,serif" font-size="14.00">ComparisonListComponent</text>
</g>
<!-- ComparisonModule -->
<g id="node3" class="node">
<title>ComparisonModule</title>
<polygon fill="#8dd3c7" stroke="black" points="526.99,-149.8 523.99,-153.8 502.99,-153.8 499.99,-149.8 399.01,-149.8 399.01,-113.8 526.99,-113.8 526.99,-149.8"/>
<text text-anchor="middle" x="463" y="-127.6" font-family="Times,serif" font-size="14.00">ComparisonModule</text>
</g>
<!-- ComparisonListComponent&#45;&gt;ComparisonModule -->
<g id="edge1" class="edge">
<title>ComparisonListComponent&#45;&gt;ComparisonModule</title>
<path fill="none" stroke="black" d="M389.95,-66.8C399.8,-66.8 406.4,-66.8 406.4,-66.8 406.4,-66.8 406.4,-103.69 406.4,-103.69"/>
<polygon fill="black" stroke="black" points="402.9,-103.69 406.4,-113.69 409.9,-103.69 402.9,-103.69"/>
</g>
<!-- NewComparisonComponent -->
<g id="node2" class="node">
<title>NewComparisonComponent</title>
<polygon fill="#ffffb3" stroke="black" points="200.2,-84.8 23.8,-84.8 23.8,-48.8 200.2,-48.8 200.2,-84.8"/>
<text text-anchor="middle" x="112" y="-62.6" font-family="Times,serif" font-size="14.00">NewComparisonComponent</text>
</g>
<!-- NewComparisonComponent&#45;&gt;ComparisonModule -->
<g id="edge2" class="edge">
<title>NewComparisonComponent&#45;&gt;ComparisonModule</title>
<path fill="none" stroke="black" d="M112,-84.91C112,-104.14 112,-131.8 112,-131.8 112,-131.8 388.62,-131.8 388.62,-131.8"/>
<polygon fill="black" stroke="black" points="388.62,-135.3 398.62,-131.8 388.62,-128.3 388.62,-135.3"/>
</g>
<!-- ChartsModule -->
<g id="node4" class="node">
<title>ChartsModule</title>
<polygon fill="#8dd3c7" stroke="black" points="748.1,-84.8 745.1,-88.8 724.1,-88.8 721.1,-84.8 651.9,-84.8 651.9,-48.8 748.1,-48.8 748.1,-84.8"/>
<text text-anchor="middle" x="700" y="-62.6" font-family="Times,serif" font-size="14.00">ChartsModule</text>
</g>
<!-- ChartsModule&#45;&gt;ComparisonModule -->
<g id="edge3" class="edge">
<title>ChartsModule&#45;&gt;ComparisonModule</title>
<path fill="none" stroke="black" d="M700,-84.91C700,-104.14 700,-131.8 700,-131.8 700,-131.8 537.14,-131.8 537.14,-131.8"/>
<polygon fill="black" stroke="black" points="537.14,-128.3 527.14,-131.8 537.14,-135.3 537.14,-128.3"/>
</g>
<!-- ReportsModule -->
<g id="node5" class="node">
<title>ReportsModule</title>
<polygon fill="#8dd3c7" stroke="black" points="633.6,-84.8 630.6,-88.8 609.6,-88.8 606.6,-84.8 530.4,-84.8 530.4,-48.8 633.6,-48.8 633.6,-84.8"/>
<text text-anchor="middle" x="582" y="-62.6" font-family="Times,serif" font-size="14.00">ReportsModule</text>
</g>
<!-- ReportsModule&#45;&gt;ComparisonModule -->
<g id="edge4" class="edge">
<title>ReportsModule&#45;&gt;ComparisonModule</title>
<path fill="none" stroke="black" d="M530.19,-66.8C523.88,-66.8 519.6,-66.8 519.6,-66.8 519.6,-66.8 519.6,-103.69 519.6,-103.69"/>
<polygon fill="black" stroke="black" points="516.1,-103.69 519.6,-113.69 523.1,-103.69 516.1,-103.69"/>
</g>
<!-- SharedModule -->
<g id="node6" class="node">
<title>SharedModule</title>
<polygon fill="#8dd3c7" stroke="black" points="512.42,-84.8 509.42,-88.8 488.42,-88.8 485.42,-84.8 413.58,-84.8 413.58,-48.8 512.42,-48.8 512.42,-84.8"/>
<text text-anchor="middle" x="463" y="-62.6" font-family="Times,serif" font-size="14.00">SharedModule</text>
</g>
<!-- SharedModule&#45;&gt;ComparisonModule -->
<g id="edge5" class="edge">
<title>SharedModule&#45;&gt;ComparisonModule</title>
<path fill="none" stroke="black" d="M463,-84.91C463,-84.91 463,-103.79 463,-103.79"/>
<polygon fill="black" stroke="black" points="459.5,-103.79 463,-113.79 466.5,-103.79 459.5,-103.79"/>
</g>
</g>
</svg>
