<?xml version="1.0" encoding="UTF-8" standalone="no"?>
<!DOCTYPE svg PUBLIC "-//W3C//DTD SVG 1.1//EN"
 "http://www.w3.org/Graphics/SVG/1.1/DTD/svg11.dtd">
<!-- Generated by graphviz version 2.47.3 (20210619.1520)
 -->
<!-- Title: dependencies Pages: 1 -->
<svg width="911pt" height="174pt"
 viewBox="0.00 0.00 911.00 173.80" xmlns="http://www.w3.org/2000/svg" xmlns:xlink="http://www.w3.org/1999/xlink">
<g id="graph0" class="graph" transform="scale(1 1) rotate(0) translate(4 169.8)">
<title>dependencies</title>
<polygon fill="white" stroke="transparent" points="-4,4 -4,-169.8 907,-169.8 907,4 -4,4"/>
<text text-anchor="middle" x="451.5" y="-8.2" font-family="sans-serif" font-size="14.00">dependencies</text>
<g id="clust1" class="cluster">
<title>cluster_StudyCaseModule</title>
<polygon fill="none" stroke="black" stroke-dasharray="1,5" points="8,-32.8 8,-157.8 895,-157.8 895,-32.8 8,-32.8"/>
</g>
<g id="clust5" class="cluster">
<title>cluster_StudyCaseModule_imports</title>
<polygon fill="none" stroke="black" points="659,-40.8 659,-92.8 887,-92.8 887,-40.8 659,-40.8"/>
</g>
<g id="clust8" class="cluster">
<title>cluster_StudyCaseModule_providers</title>
<polygon fill="none" stroke="black" points="323,-40.8 323,-92.8 651,-92.8 651,-40.8 323,-40.8"/>
</g>
<g id="clust2" class="cluster">
<title>cluster_StudyCaseModule_declarations</title>
<polygon fill="none" stroke="black" points="16,-40.8 16,-92.8 315,-92.8 315,-40.8 16,-40.8"/>
</g>
<!-- CaseListComponent -->
<g id="node1" class="node">
<title>CaseListComponent</title>
<polygon fill="#ffffb3" stroke="black" points="307.32,-84.8 176.68,-84.8 176.68,-48.8 307.32,-48.8 307.32,-84.8"/>
<text text-anchor="middle" x="242" y="-62.6" font-family="Times,serif" font-size="14.00">CaseListComponent</text>
</g>
<!-- StudyCaseModule -->
<g id="node3" class="node">
<title>StudyCaseModule</title>
<polygon fill="#8dd3c7" stroke="black" points="535.93,-149.8 532.93,-153.8 511.93,-153.8 508.93,-149.8 416.07,-149.8 416.07,-113.8 535.93,-113.8 535.93,-149.8"/>
<text text-anchor="middle" x="476" y="-127.6" font-family="Times,serif" font-size="14.00">StudyCaseModule</text>
</g>
<!-- CaseListComponent&#45;&gt;StudyCaseModule -->
<g id="edge1" class="edge">
<title>CaseListComponent&#45;&gt;StudyCaseModule</title>
<path fill="none" stroke="black" d="M242,-84.82C242,-102.17 242,-125.8 242,-125.8 242,-125.8 406.04,-125.8 406.04,-125.8"/>
<polygon fill="black" stroke="black" points="406.04,-129.3 416.04,-125.8 406.04,-122.3 406.04,-129.3"/>
</g>
<!-- NewCaseComponent -->
<g id="node2" class="node">
<title>NewCaseComponent</title>
<polygon fill="#ffffb3" stroke="black" points="158.47,-84.8 23.53,-84.8 23.53,-48.8 158.47,-48.8 158.47,-84.8"/>
<text text-anchor="middle" x="91" y="-62.6" font-family="Times,serif" font-size="14.00">NewCaseComponent</text>
</g>
<!-- NewCaseComponent&#45;&gt;StudyCaseModule -->
<g id="edge2" class="edge">
<title>NewCaseComponent&#45;&gt;StudyCaseModule</title>
<path fill="none" stroke="black" d="M91,-85.08C91,-106.12 91,-137.8 91,-137.8 91,-137.8 406.27,-137.8 406.27,-137.8"/>
<polygon fill="black" stroke="black" points="406.27,-141.3 416.27,-137.8 406.27,-134.3 406.27,-141.3"/>
</g>
<!-- ChartsModule -->
<g id="node4" class="node">
<title>ChartsModule</title>
<polygon fill="#8dd3c7" stroke="black" points="879.1,-84.8 876.1,-88.8 855.1,-88.8 852.1,-84.8 782.9,-84.8 782.9,-48.8 879.1,-48.8 879.1,-84.8"/>
<text text-anchor="middle" x="831" y="-62.6" font-family="Times,serif" font-size="14.00">ChartsModule</text>
</g>
<!-- ChartsModule&#45;&gt;StudyCaseModule -->
<g id="edge3" class="edge">
<title>ChartsModule&#45;&gt;StudyCaseModule</title>
<path fill="none" stroke="black" d="M831,-85.08C831,-106.12 831,-137.8 831,-137.8 831,-137.8 545.82,-137.8 545.82,-137.8"/>
<polygon fill="black" stroke="black" points="545.82,-134.3 535.82,-137.8 545.82,-141.3 545.82,-134.3"/>
</g>
<!-- SharedModule -->
<g id="node5" class="node">
<title>SharedModule</title>
<polygon fill="#8dd3c7" stroke="black" points="765.42,-84.8 762.42,-88.8 741.42,-88.8 738.42,-84.8 666.58,-84.8 666.58,-48.8 765.42,-48.8 765.42,-84.8"/>
<text text-anchor="middle" x="716" y="-62.6" font-family="Times,serif" font-size="14.00">SharedModule</text>
</g>
<!-- SharedModule&#45;&gt;StudyCaseModule -->
<g id="edge4" class="edge">
<title>SharedModule&#45;&gt;StudyCaseModule</title>
<path fill="none" stroke="black" d="M716,-84.82C716,-102.17 716,-125.8 716,-125.8 716,-125.8 545.94,-125.8 545.94,-125.8"/>
<polygon fill="black" stroke="black" points="545.94,-122.3 535.94,-125.8 545.94,-129.3 545.94,-122.3"/>
</g>
<!-- CaseFormProvider -->
<g id="node6" class="node">
<title>CaseFormProvider</title>
<ellipse fill="#fdb462" stroke="black" cx="559" cy="-66.8" rx="83.97" ry="18"/>
<text text-anchor="middle" x="559" y="-62.6" font-family="Times,serif" font-size="14.00">CaseFormProvider</text>
</g>
<!-- CaseFormProvider&#45;&gt;StudyCaseModule -->
<g id="edge5" class="edge">
<title>CaseFormProvider&#45;&gt;StudyCaseModule</title>
<path fill="none" stroke="black" d="M505.37,-80.9C505.37,-80.9 505.37,-103.52 505.37,-103.52"/>
<polygon fill="black" stroke="black" points="501.87,-103.52 505.37,-113.52 508.87,-103.52 501.87,-103.52"/>
</g>
<!-- CaseProvider -->
<g id="node7" class="node">
<title>CaseProvider</title>
<ellipse fill="#fdb462" stroke="black" cx="394" cy="-66.8" rx="63.12" ry="18"/>
<text text-anchor="middle" x="394" y="-62.6" font-family="Times,serif" font-size="14.00">CaseProvider</text>
</g>
<!-- CaseProvider&#45;&gt;StudyCaseModule -->
<g id="edge6" class="edge">
<title>CaseProvider&#45;&gt;StudyCaseModule</title>
<path fill="none" stroke="black" d="M436.67,-80.27C436.67,-80.27 436.67,-103.66 436.67,-103.66"/>
<polygon fill="black" stroke="black" points="433.17,-103.66 436.67,-113.66 440.17,-103.66 433.17,-103.66"/>
</g>
</g>
</svg>
