<?xml version="1.0" encoding="UTF-8" standalone="no"?>
<!DOCTYPE svg PUBLIC "-//W3C//DTD SVG 1.1//EN"
 "http://www.w3.org/Graphics/SVG/1.1/DTD/svg11.dtd">
<!-- Generated by graphviz version 2.47.3 (20210619.1520)
 -->
<!-- Title: dependencies Pages: 1 -->
<svg width="957pt" height="247pt"
 viewBox="0.00 0.00 957.00 246.80" xmlns="http://www.w3.org/2000/svg" xmlns:xlink="http://www.w3.org/1999/xlink">
<g id="graph0" class="graph" transform="scale(1 1) rotate(0) translate(4 242.8)">
<title>dependencies</title>
<polygon fill="white" stroke="transparent" points="-4,4 -4,-242.8 953,-242.8 953,4 -4,4"/>
<text text-anchor="middle" x="474.5" y="-8.2" font-family="sans-serif" font-size="14.00">dependencies</text>
<g id="clust1" class="cluster">
<title>cluster_ResultsModule</title>
<polygon fill="none" stroke="black" stroke-dasharray="1,5" points="8,-32.8 8,-230.8 941,-230.8 941,-32.8 8,-32.8"/>
</g>
<g id="clust5" class="cluster">
<title>cluster_ResultsModule_imports</title>
<polygon fill="none" stroke="black" points="445,-40.8 445,-92.8 933,-92.8 933,-40.8 445,-40.8"/>
</g>
<g id="clust2" class="cluster">
<title>cluster_ResultsModule_declarations</title>
<polygon fill="none" stroke="black" points="16,-40.8 16,-92.8 437,-92.8 437,-40.8 16,-40.8"/>
</g>
<g id="clust6" class="cluster">
<title>cluster_ResultsModule_exports</title>
<polygon fill="none" stroke="black" points="342,-170.8 342,-222.8 770,-222.8 770,-170.8 342,-170.8"/>
</g>
<!-- ComparisonResultsComponent -->
<g id="node1" class="node">
<title>ComparisonResultsComponent</title>
<polygon fill="#ffffb3" stroke="black" points="429.49,-84.8 238.51,-84.8 238.51,-48.8 429.49,-48.8 429.49,-84.8"/>
<text text-anchor="middle" x="334" y="-62.6" font-family="Times,serif" font-size="14.00">ComparisonResultsComponent</text>
</g>
<!-- ResultsModule -->
<g id="node3" class="node">
<title>ResultsModule</title>
<polygon fill="#8dd3c7" stroke="black" points="607.27,-149.8 604.27,-153.8 583.27,-153.8 580.27,-149.8 506.73,-149.8 506.73,-113.8 607.27,-113.8 607.27,-149.8"/>
<text text-anchor="middle" x="557" y="-127.6" font-family="Times,serif" font-size="14.00">ResultsModule</text>
</g>
<!-- ComparisonResultsComponent&#45;&gt;ResultsModule -->
<g id="edge1" class="edge">
<title>ComparisonResultsComponent&#45;&gt;ResultsModule</title>
<path fill="none" stroke="black" d="M389.76,-84.82C389.76,-102.17 389.76,-125.8 389.76,-125.8 389.76,-125.8 496.37,-125.8 496.37,-125.8"/>
<polygon fill="black" stroke="black" points="496.37,-129.3 506.37,-125.8 496.37,-122.3 496.37,-129.3"/>
</g>
<!-- OptimizationResultsComponent -->
<g id="node2" class="node">
<title>OptimizationResultsComponent</title>
<polygon fill="#ffffb3" stroke="black" points="220.43,-84.8 23.57,-84.8 23.57,-48.8 220.43,-48.8 220.43,-84.8"/>
<text text-anchor="middle" x="122" y="-62.6" font-family="Times,serif" font-size="14.00">OptimizationResultsComponent</text>
</g>
<!-- OptimizationResultsComponent&#45;&gt;ResultsModule -->
<g id="edge2" class="edge">
<title>OptimizationResultsComponent&#45;&gt;ResultsModule</title>
<path fill="none" stroke="black" d="M122,-85.08C122,-106.12 122,-137.8 122,-137.8 122,-137.8 496.68,-137.8 496.68,-137.8"/>
<polygon fill="black" stroke="black" points="496.68,-141.3 506.68,-137.8 496.67,-134.3 496.68,-141.3"/>
</g>
<!-- ComparisonResultsComponent  -->
<g id="node8" class="node">
<title>ComparisonResultsComponent </title>
<polygon fill="#fb8072" stroke="black" points="762.49,-214.8 567.51,-214.8 567.51,-178.8 762.49,-178.8 762.49,-214.8"/>
<text text-anchor="middle" x="665" y="-192.6" font-family="Times,serif" font-size="14.00">ComparisonResultsComponent </text>
</g>
<!-- ResultsModule&#45;&gt;ComparisonResultsComponent  -->
<g id="edge7" class="edge">
<title>ResultsModule&#45;&gt;ComparisonResultsComponent </title>
<path fill="none" stroke="black" stroke-dasharray="5,2" d="M587.57,-149.91C587.57,-149.91 587.57,-168.79 587.57,-168.79"/>
<polygon fill="black" stroke="black" points="584.07,-168.79 587.57,-178.79 591.07,-168.79 584.07,-168.79"/>
</g>
<!-- OptimizationResultsComponent  -->
<g id="node9" class="node">
<title>OptimizationResultsComponent </title>
<polygon fill="#fb8072" stroke="black" points="549.93,-214.8 350.07,-214.8 350.07,-178.8 549.93,-178.8 549.93,-214.8"/>
<text text-anchor="middle" x="450" y="-192.6" font-family="Times,serif" font-size="14.00">OptimizationResultsComponent </text>
</g>
<!-- ResultsModule&#45;&gt;OptimizationResultsComponent  -->
<g id="edge8" class="edge">
<title>ResultsModule&#45;&gt;OptimizationResultsComponent </title>
<path fill="none" stroke="black" stroke-dasharray="5,2" d="M528.29,-149.91C528.29,-149.91 528.29,-168.79 528.29,-168.79"/>
<polygon fill="black" stroke="black" points="524.79,-168.79 528.29,-178.79 531.79,-168.79 524.79,-168.79"/>
</g>
<!-- ChartsModule -->
<g id="node4" class="node">
<title>ChartsModule</title>
<polygon fill="#8dd3c7" stroke="black" points="925.1,-84.8 922.1,-88.8 901.1,-88.8 898.1,-84.8 828.9,-84.8 828.9,-48.8 925.1,-48.8 925.1,-84.8"/>
<text text-anchor="middle" x="877" y="-62.6" font-family="Times,serif" font-size="14.00">ChartsModule</text>
</g>
<!-- ChartsModule&#45;&gt;ResultsModule -->
<g id="edge3" class="edge">
<title>ChartsModule&#45;&gt;ResultsModule</title>
<path fill="none" stroke="black" d="M877,-85.08C877,-106.12 877,-137.8 877,-137.8 877,-137.8 617.35,-137.8 617.35,-137.8"/>
<polygon fill="black" stroke="black" points="617.35,-134.3 607.35,-137.8 617.35,-141.3 617.35,-134.3"/>
</g>
<!-- InstrumentModule -->
<g id="node5" class="node">
<title>InstrumentModule</title>
<polygon fill="#8dd3c7" stroke="black" points="811.2,-84.8 808.2,-88.8 787.2,-88.8 784.2,-84.8 690.8,-84.8 690.8,-48.8 811.2,-48.8 811.2,-84.8"/>
<text text-anchor="middle" x="751" y="-62.6" font-family="Times,serif" font-size="14.00">InstrumentModule</text>
</g>
<!-- InstrumentModule&#45;&gt;ResultsModule -->
<g id="edge4" class="edge">
<title>InstrumentModule&#45;&gt;ResultsModule</title>
<path fill="none" stroke="black" d="M726.57,-84.82C726.57,-102.17 726.57,-125.8 726.57,-125.8 726.57,-125.8 617.42,-125.8 617.42,-125.8"/>
<polygon fill="black" stroke="black" points="617.42,-122.3 607.42,-125.8 617.42,-129.3 617.42,-122.3"/>
</g>
<!-- ReportsModule -->
<g id="node6" class="node">
<title>ReportsModule</title>
<polygon fill="#8dd3c7" stroke="black" points="672.6,-84.8 669.6,-88.8 648.6,-88.8 645.6,-84.8 569.4,-84.8 569.4,-48.8 672.6,-48.8 672.6,-84.8"/>
<text text-anchor="middle" x="621" y="-62.6" font-family="Times,serif" font-size="14.00">ReportsModule</text>
</g>
<!-- ReportsModule&#45;&gt;ResultsModule -->
<g id="edge5" class="edge">
<title>ReportsModule&#45;&gt;ResultsModule</title>
<path fill="none" stroke="black" d="M588.42,-84.91C588.42,-84.91 588.42,-103.79 588.42,-103.79"/>
<polygon fill="black" stroke="black" points="584.92,-103.79 588.42,-113.79 591.92,-103.79 584.92,-103.79"/>
</g>
<!-- SharedModule -->
<g id="node7" class="node">
<title>SharedModule</title>
<polygon fill="#8dd3c7" stroke="black" points="551.42,-84.8 548.42,-88.8 527.42,-88.8 524.42,-84.8 452.58,-84.8 452.58,-48.8 551.42,-48.8 551.42,-84.8"/>
<text text-anchor="middle" x="502" y="-62.6" font-family="Times,serif" font-size="14.00">SharedModule</text>
</g>
<!-- SharedModule&#45;&gt;ResultsModule -->
<g id="edge6" class="edge">
<title>SharedModule&#45;&gt;ResultsModule</title>
<path fill="none" stroke="black" d="M528.91,-84.91C528.91,-84.91 528.91,-103.79 528.91,-103.79"/>
<polygon fill="black" stroke="black" points="525.41,-103.79 528.91,-113.79 532.41,-103.79 525.41,-103.79"/>
</g>
</g>
</svg>
