<?xml version="1.0" encoding="UTF-8" standalone="no"?>
<!DOCTYPE svg PUBLIC "-//W3C//DTD SVG 1.1//EN"
 "http://www.w3.org/Graphics/SVG/1.1/DTD/svg11.dtd">
<!-- Generated by graphviz version 2.47.3 (20210619.1520)
 -->
<!-- Title: dependencies Pages: 1 -->
<svg width="434pt" height="174pt"
 viewBox="0.00 0.00 434.00 173.80" xmlns="http://www.w3.org/2000/svg" xmlns:xlink="http://www.w3.org/1999/xlink">
<g id="graph0" class="graph" transform="scale(1 1) rotate(0) translate(4 169.8)">
<title>dependencies</title>
<polygon fill="white" stroke="transparent" points="-4,4 -4,-169.8 430,-169.8 430,4 -4,4"/>
<text text-anchor="middle" x="213" y="-8.2" font-family="sans-serif" font-size="14.00">dependencies</text>
<g id="clust1" class="cluster">
<title>cluster_FilterModule</title>
<polygon fill="none" stroke="black" stroke-dasharray="1,5" points="8,-32.8 8,-157.8 418,-157.8 418,-32.8 8,-32.8"/>
</g>
<g id="clust4" class="cluster">
<title>cluster_FilterModule_imports</title>
<polygon fill="none" stroke="black" points="174,-40.8 174,-92.8 410,-92.8 410,-40.8 174,-40.8"/>
</g>
<g id="clust2" class="cluster">
<title>cluster_FilterModule_declarations</title>
<polygon fill="none" stroke="black" points="16,-40.8 16,-92.8 166,-92.8 166,-40.8 16,-40.8"/>
</g>
<!-- FilterListComponent -->
<g id="node1" class="node">
<title>FilterListComponent</title>
<polygon fill="#ffffb3" stroke="black" points="157.94,-84.8 24.06,-84.8 24.06,-48.8 157.94,-48.8 157.94,-84.8"/>
<text text-anchor="middle" x="91" y="-62.6" font-family="Times,serif" font-size="14.00">FilterListComponent</text>
</g>
<!-- FilterModule -->
<g id="node2" class="node">
<title>FilterModule</title>
<polygon fill="#8dd3c7" stroke="black" points="275.88,-149.8 272.88,-153.8 251.88,-153.8 248.88,-149.8 186.12,-149.8 186.12,-113.8 275.88,-113.8 275.88,-149.8"/>
<text text-anchor="middle" x="231" y="-127.6" font-family="Times,serif" font-size="14.00">FilterModule</text>
</g>
<!-- FilterListComponent&#45;&gt;FilterModule -->
<g id="edge1" class="edge">
<title>FilterListComponent&#45;&gt;FilterModule</title>
<path fill="none" stroke="black" d="M91,-84.91C91,-104.14 91,-131.8 91,-131.8 91,-131.8 175.93,-131.8 175.93,-131.8"/>
<polygon fill="black" stroke="black" points="175.93,-135.3 185.93,-131.8 175.93,-128.3 175.93,-135.3"/>
</g>
<!-- ReportsModule -->
<g id="node3" class="node">
<title>ReportsModule</title>
<polygon fill="#8dd3c7" stroke="black" points="401.6,-84.8 398.6,-88.8 377.6,-88.8 374.6,-84.8 298.4,-84.8 298.4,-48.8 401.6,-48.8 401.6,-84.8"/>
<text text-anchor="middle" x="350" y="-62.6" font-family="Times,serif" font-size="14.00">ReportsModule</text>
</g>
<!-- ReportsModule&#45;&gt;FilterModule -->
<g id="edge2" class="edge">
<title>ReportsModule&#45;&gt;FilterModule</title>
<path fill="none" stroke="black" d="M350,-84.91C350,-104.14 350,-131.8 350,-131.8 350,-131.8 285.99,-131.8 285.99,-131.8"/>
<polygon fill="black" stroke="black" points="285.99,-128.3 275.99,-131.8 285.99,-135.3 285.99,-128.3"/>
</g>
<!-- SharedModule -->
<g id="node4" class="node">
<title>SharedModule</title>
<polygon fill="#8dd3c7" stroke="black" points="280.42,-84.8 277.42,-88.8 256.42,-88.8 253.42,-84.8 181.58,-84.8 181.58,-48.8 280.42,-48.8 280.42,-84.8"/>
<text text-anchor="middle" x="231" y="-62.6" font-family="Times,serif" font-size="14.00">SharedModule</text>
</g>
<!-- SharedModule&#45;&gt;FilterModule -->
<g id="edge3" class="edge">
<title>SharedModule&#45;&gt;FilterModule</title>
<path fill="none" stroke="black" d="M231,-84.91C231,-84.91 231,-103.79 231,-103.79"/>
<polygon fill="black" stroke="black" points="227.5,-103.79 231,-113.79 234.5,-103.79 227.5,-103.79"/>
</g>
</g>
</svg>
