<?xml version="1.0" encoding="UTF-8" standalone="no"?>
<!DOCTYPE svg PUBLIC "-//W3C//DTD SVG 1.1//EN"
 "http://www.w3.org/Graphics/SVG/1.1/DTD/svg11.dtd">
<!-- Generated by graphviz version 2.47.3 (20210619.1520)
 -->
<!-- Title: dependencies Pages: 1 -->
<svg width="534pt" height="247pt"
 viewBox="0.00 0.00 534.00 246.80" xmlns="http://www.w3.org/2000/svg" xmlns:xlink="http://www.w3.org/1999/xlink">
<g id="graph0" class="graph" transform="scale(1 1) rotate(0) translate(4 242.8)">
<title>dependencies</title>
<polygon fill="white" stroke="transparent" points="-4,4 -4,-242.8 530,-242.8 530,4 -4,4"/>
<text text-anchor="middle" x="263" y="-8.2" font-family="sans-serif" font-size="14.00">dependencies</text>
<g id="clust1" class="cluster">
<title>cluster_InstrumentModule</title>
<polygon fill="none" stroke="black" stroke-dasharray="1,5" points="8,-32.8 8,-230.8 518,-230.8 518,-32.8 8,-32.8"/>
</g>
<g id="clust2" class="cluster">
<title>cluster_InstrumentModule_declarations</title>
<polygon fill="none" stroke="black" points="138,-40.8 138,-92.8 510,-92.8 510,-40.8 138,-40.8"/>
</g>
<g id="clust5" class="cluster">
<title>cluster_InstrumentModule_imports</title>
<polygon fill="none" stroke="black" points="16,-40.8 16,-92.8 130,-92.8 130,-40.8 16,-40.8"/>
</g>
<g id="clust6" class="cluster">
<title>cluster_InstrumentModule_exports</title>
<polygon fill="none" stroke="black" points="163,-170.8 163,-222.8 325,-222.8 325,-170.8 163,-170.8"/>
</g>
<!-- InstrumentComponent -->
<g id="node1" class="node">
<title>InstrumentComponent</title>
<polygon fill="#ffffb3" stroke="black" points="501.98,-84.8 360.02,-84.8 360.02,-48.8 501.98,-48.8 501.98,-84.8"/>
<text text-anchor="middle" x="431" y="-62.6" font-family="Times,serif" font-size="14.00">InstrumentComponent</text>
</g>
<!-- InstrumentModule -->
<g id="node3" class="node">
<title>InstrumentModule</title>
<polygon fill="#8dd3c7" stroke="black" points="304.2,-149.8 301.2,-153.8 280.2,-153.8 277.2,-149.8 183.8,-149.8 183.8,-113.8 304.2,-113.8 304.2,-149.8"/>
<text text-anchor="middle" x="244" y="-127.6" font-family="Times,serif" font-size="14.00">InstrumentModule</text>
</g>
<!-- InstrumentComponent&#45;&gt;InstrumentModule -->
<g id="edge1" class="edge">
<title>InstrumentComponent&#45;&gt;InstrumentModule</title>
<path fill="none" stroke="black" d="M431,-84.91C431,-104.14 431,-131.8 431,-131.8 431,-131.8 314.2,-131.8 314.2,-131.8"/>
<polygon fill="black" stroke="black" points="314.2,-128.3 304.2,-131.8 314.2,-135.3 314.2,-128.3"/>
</g>
<!-- NewInstrumentationComponent -->
<g id="node2" class="node">
<title>NewInstrumentationComponent</title>
<polygon fill="#ffffb3" stroke="black" points="342.41,-84.8 145.59,-84.8 145.59,-48.8 342.41,-48.8 342.41,-84.8"/>
<text text-anchor="middle" x="244" y="-62.6" font-family="Times,serif" font-size="14.00">NewInstrumentationComponent</text>
</g>
<!-- NewInstrumentationComponent&#45;&gt;InstrumentModule -->
<g id="edge2" class="edge">
<title>NewInstrumentationComponent&#45;&gt;InstrumentModule</title>
<path fill="none" stroke="black" d="M244,-84.91C244,-84.91 244,-103.79 244,-103.79"/>
<polygon fill="black" stroke="black" points="240.5,-103.79 244,-113.79 247.5,-103.79 240.5,-103.79"/>
</g>
<!-- InstrumentComponent  -->
<g id="node5" class="node">
<title>InstrumentComponent </title>
<polygon fill="#fb8072" stroke="black" points="316.99,-214.8 171.01,-214.8 171.01,-178.8 316.99,-178.8 316.99,-214.8"/>
<text text-anchor="middle" x="244" y="-192.6" font-family="Times,serif" font-size="14.00">InstrumentComponent </text>
</g>
<!-- InstrumentModule&#45;&gt;InstrumentComponent  -->
<g id="edge4" class="edge">
<title>InstrumentModule&#45;&gt;InstrumentComponent </title>
<path fill="none" stroke="black" stroke-dasharray="5,2" d="M244,-149.91C244,-149.91 244,-168.79 244,-168.79"/>
<polygon fill="black" stroke="black" points="240.5,-168.79 244,-178.79 247.5,-168.79 240.5,-168.79"/>
</g>
<!-- SharedModule -->
<g id="node4" class="node">
<title>SharedModule</title>
<polygon fill="#8dd3c7" stroke="black" points="122.42,-84.8 119.42,-88.8 98.42,-88.8 95.42,-84.8 23.58,-84.8 23.58,-48.8 122.42,-48.8 122.42,-84.8"/>
<text text-anchor="middle" x="73" y="-62.6" font-family="Times,serif" font-size="14.00">SharedModule</text>
</g>
<!-- SharedModule&#45;&gt;InstrumentModule -->
<g id="edge3" class="edge">
<title>SharedModule&#45;&gt;InstrumentModule</title>
<path fill="none" stroke="black" d="M73,-84.91C73,-104.14 73,-131.8 73,-131.8 73,-131.8 173.71,-131.8 173.71,-131.8"/>
<polygon fill="black" stroke="black" points="173.71,-135.3 183.71,-131.8 173.71,-128.3 173.71,-135.3"/>
</g>
</g>
</svg>
