<?xml version="1.0" encoding="UTF-8" standalone="no"?>
<!DOCTYPE svg PUBLIC "-//W3C//DTD SVG 1.1//EN"
 "http://www.w3.org/Graphics/SVG/1.1/DTD/svg11.dtd">
<!-- Generated by graphviz version 2.47.3 (20210619.1520)
 -->
<!-- Title: dependencies Pages: 1 -->
<svg width="4569pt" height="358pt"
 viewBox="0.00 0.00 4569.00 358.39" xmlns="http://www.w3.org/2000/svg" xmlns:xlink="http://www.w3.org/1999/xlink">
<g id="graph0" class="graph" transform="scale(1 1) rotate(0) translate(4 354.39)">
<title>dependencies</title>
<polygon fill="white" stroke="transparent" points="-4,4 -4,-354.39 4565,-354.39 4565,4 -4,4"/>
<text text-anchor="middle" x="2280.5" y="-8.2" font-family="sans-serif" font-size="14.00">dependencies</text>
<g id="clust1" class="cluster">
<title>cluster_ProfileModule</title>
<polygon fill="none" stroke="black" stroke-dasharray="1,5" points="8,-32.8 8,-342.39 4553,-342.39 4553,-32.8 8,-32.8"/>
</g>
<g id="clust8" class="cluster">
<title>cluster_ProfileModule_NewCardComponent_providers</title>
<polygon fill="none" stroke="black" points="2817,-40.8 2817,-204.39 4545,-204.39 4545,-40.8 2817,-40.8"/>
</g>
<g id="clust18" class="cluster">
<title>cluster_ProfileModule_providers</title>
<polygon fill="none" stroke="black" points="2101,-152.39 2101,-204.39 2809,-204.39 2809,-152.39 2101,-152.39"/>
</g>
<g id="clust16" class="cluster">
<title>cluster_ProfileModule_exports</title>
<polygon fill="none" stroke="black" points="417,-282.39 417,-334.39 2379,-334.39 2379,-282.39 417,-282.39"/>
</g>
<g id="clust2" class="cluster">
<title>cluster_ProfileModule_declarations</title>
<polygon fill="none" stroke="black" points="138,-152.39 138,-204.39 2093,-204.39 2093,-152.39 138,-152.39"/>
</g>
<g id="clust15" class="cluster">
<title>cluster_ProfileModule_imports</title>
<polygon fill="none" stroke="black" points="16,-152.39 16,-204.39 130,-204.39 130,-152.39 16,-152.39"/>
</g>
<!-- AboutComponent -->
<g id="node1" class="node">
<title>AboutComponent</title>
<polygon fill="#ffffb3" stroke="black" points="2085.33,-196.39 1968.67,-196.39 1968.67,-160.39 2085.33,-160.39 2085.33,-196.39"/>
<text text-anchor="middle" x="2027" y="-174.19" font-family="Times,serif" font-size="14.00">AboutComponent</text>
</g>
<!-- ProfileModule -->
<g id="node13" class="node">
<title>ProfileModule</title>
<polygon fill="#8dd3c7" stroke="black" points="1503.65,-261.39 1500.65,-265.39 1479.65,-265.39 1476.65,-261.39 1406.35,-261.39 1406.35,-225.39 1503.65,-225.39 1503.65,-261.39"/>
<text text-anchor="middle" x="1455" y="-239.19" font-family="Times,serif" font-size="14.00">ProfileModule</text>
</g>
<!-- AboutComponent&#45;&gt;ProfileModule -->
<g id="edge1" class="edge">
<title>AboutComponent&#45;&gt;ProfileModule</title>
<path fill="none" stroke="black" d="M2027,-196.4C2027,-212.44 2027,-233.39 2027,-233.39 2027,-233.39 1513.77,-233.39 1513.77,-233.39"/>
<polygon fill="black" stroke="black" points="1513.77,-229.89 1503.77,-233.39 1513.77,-236.89 1513.77,-229.89"/>
</g>
<!-- BillingsComponent -->
<g id="node2" class="node">
<title>BillingsComponent</title>
<polygon fill="#ffffb3" stroke="black" points="1950.68,-196.39 1825.32,-196.39 1825.32,-160.39 1950.68,-160.39 1950.68,-196.39"/>
<text text-anchor="middle" x="1888" y="-174.19" font-family="Times,serif" font-size="14.00">BillingsComponent</text>
</g>
<!-- BillingsComponent&#45;&gt;ProfileModule -->
<g id="edge2" class="edge">
<title>BillingsComponent&#45;&gt;ProfileModule</title>
<path fill="none" stroke="black" d="M1876.86,-196.63C1876.86,-211.96 1876.86,-231.39 1876.86,-231.39 1876.86,-231.39 1513.81,-231.39 1513.81,-231.39"/>
<polygon fill="black" stroke="black" points="1513.81,-227.89 1503.81,-231.39 1513.81,-234.89 1513.81,-227.89"/>
</g>
<!-- CompanyComponent -->
<g id="node3" class="node">
<title>CompanyComponent</title>
<polygon fill="#ffffb3" stroke="black" points="1806.77,-196.39 1671.23,-196.39 1671.23,-160.39 1806.77,-160.39 1806.77,-196.39"/>
<text text-anchor="middle" x="1739" y="-174.19" font-family="Times,serif" font-size="14.00">CompanyComponent</text>
</g>
<!-- CompanyComponent&#45;&gt;ProfileModule -->
<g id="edge3" class="edge">
<title>CompanyComponent&#45;&gt;ProfileModule</title>
<path fill="none" stroke="black" d="M1691.17,-196.44C1691.17,-210.76 1691.17,-228.39 1691.17,-228.39 1691.17,-228.39 1513.94,-228.39 1513.94,-228.39"/>
<polygon fill="black" stroke="black" points="1513.94,-224.89 1503.94,-228.39 1513.94,-231.89 1513.94,-224.89"/>
</g>
<!-- CreditCarDListPageComponent -->
<g id="node4" class="node">
<title>CreditCarDListPageComponent</title>
<polygon fill="#ffffb3" stroke="black" points="1652.63,-196.39 1457.37,-196.39 1457.37,-160.39 1652.63,-160.39 1652.63,-196.39"/>
<text text-anchor="middle" x="1555" y="-174.19" font-family="Times,serif" font-size="14.00">CreditCarDListPageComponent</text>
</g>
<!-- CreditCarDListPageComponent&#45;&gt;ProfileModule -->
<g id="edge4" class="edge">
<title>CreditCarDListPageComponent&#45;&gt;ProfileModule</title>
<path fill="none" stroke="black" d="M1480.5,-196.5C1480.5,-196.5 1480.5,-215.38 1480.5,-215.38"/>
<polygon fill="black" stroke="black" points="1477,-215.38 1480.5,-225.38 1484,-215.38 1477,-215.38"/>
</g>
<!-- DialogDeleteConfirmation -->
<g id="node5" class="node">
<title>DialogDeleteConfirmation</title>
<polygon fill="#ffffb3" stroke="black" points="1439.07,-196.39 1272.93,-196.39 1272.93,-160.39 1439.07,-160.39 1439.07,-196.39"/>
<text text-anchor="middle" x="1356" y="-174.19" font-family="Times,serif" font-size="14.00">DialogDeleteConfirmation</text>
</g>
<!-- DialogDeleteConfirmation&#45;&gt;ProfileModule -->
<g id="edge5" class="edge">
<title>DialogDeleteConfirmation&#45;&gt;ProfileModule</title>
<path fill="none" stroke="black" d="M1422.6,-196.5C1422.6,-196.5 1422.6,-215.38 1422.6,-215.38"/>
<polygon fill="black" stroke="black" points="1419.1,-215.38 1422.6,-225.38 1426.1,-215.38 1419.1,-215.38"/>
</g>
<!-- NewCardComponent -->
<g id="node6" class="node">
<title>NewCardComponent</title>
<polygon fill="#ffffb3" stroke="black" points="3166.47,-196.39 3031.53,-196.39 3031.53,-160.39 3166.47,-160.39 3166.47,-196.39"/>
<text text-anchor="middle" x="3099" y="-174.19" font-family="Times,serif" font-size="14.00">NewCardComponent</text>
</g>
<!-- NewCardComponent&#45;&gt;ProfileModule -->
<g id="edge6" class="edge">
<title>NewCardComponent&#45;&gt;ProfileModule</title>
<path fill="none" stroke="black" d="M3099,-196.61C3099,-216.76 3099,-246.39 3099,-246.39 3099,-246.39 1513.76,-246.39 1513.76,-246.39"/>
<polygon fill="black" stroke="black" points="1513.76,-242.89 1503.76,-246.39 1513.76,-249.89 1513.76,-242.89"/>
</g>
<!-- PersonalInformationComponent -->
<g id="node7" class="node">
<title>PersonalInformationComponent</title>
<polygon fill="#ffffb3" stroke="black" points="1255.41,-196.39 1058.59,-196.39 1058.59,-160.39 1255.41,-160.39 1255.41,-196.39"/>
<text text-anchor="middle" x="1157" y="-174.19" font-family="Times,serif" font-size="14.00">PersonalInformationComponent</text>
</g>
<!-- PersonalInformationComponent&#45;&gt;ProfileModule -->
<g id="edge9" class="edge">
<title>PersonalInformationComponent&#45;&gt;ProfileModule</title>
<path fill="none" stroke="black" d="M1227.87,-196.44C1227.87,-210.76 1227.87,-228.39 1227.87,-228.39 1227.87,-228.39 1396.27,-228.39 1396.27,-228.39"/>
<polygon fill="black" stroke="black" points="1396.27,-231.89 1406.27,-228.39 1396.27,-224.89 1396.27,-231.89"/>
</g>
<!-- PlansListComponent -->
<g id="node8" class="node">
<title>PlansListComponent</title>
<polygon fill="#ffffb3" stroke="black" points="1040.94,-196.39 907.06,-196.39 907.06,-160.39 1040.94,-160.39 1040.94,-196.39"/>
<text text-anchor="middle" x="974" y="-174.19" font-family="Times,serif" font-size="14.00">PlansListComponent</text>
</g>
<!-- PlansListComponent&#45;&gt;ProfileModule -->
<g id="edge10" class="edge">
<title>PlansListComponent&#45;&gt;ProfileModule</title>
<path fill="none" stroke="black" d="M1036.32,-196.63C1036.32,-211.96 1036.32,-231.39 1036.32,-231.39 1036.32,-231.39 1396.15,-231.39 1396.15,-231.39"/>
<polygon fill="black" stroke="black" points="1396.15,-234.89 1406.15,-231.39 1396.15,-227.89 1396.15,-234.89"/>
</g>
<!-- ProfilePageComponent -->
<g id="node9" class="node">
<title>ProfilePageComponent</title>
<polygon fill="#ffffb3" stroke="black" points="889.14,-196.39 742.86,-196.39 742.86,-160.39 889.14,-160.39 889.14,-196.39"/>
<text text-anchor="middle" x="816" y="-174.19" font-family="Times,serif" font-size="14.00">ProfilePageComponent</text>
</g>
<!-- ProfilePageComponent&#45;&gt;ProfileModule -->
<g id="edge11" class="edge">
<title>ProfilePageComponent&#45;&gt;ProfileModule</title>
<path fill="none" stroke="black" d="M843.79,-196.4C843.79,-212.44 843.79,-233.39 843.79,-233.39 843.79,-233.39 1396.27,-233.39 1396.27,-233.39"/>
<polygon fill="black" stroke="black" points="1396.27,-236.89 1406.27,-233.39 1396.27,-229.89 1396.27,-236.89"/>
</g>
<!-- StripePaymentCreationComponent -->
<g id="node10" class="node">
<title>StripePaymentCreationComponent</title>
<polygon fill="#ffffb3" stroke="black" points="724.97,-196.39 513.03,-196.39 513.03,-160.39 724.97,-160.39 724.97,-196.39"/>
<text text-anchor="middle" x="619" y="-174.19" font-family="Times,serif" font-size="14.00">StripePaymentCreationComponent</text>
</g>
<!-- StripePaymentCreationComponent&#45;&gt;ProfileModule -->
<g id="edge12" class="edge">
<title>StripePaymentCreationComponent&#45;&gt;ProfileModule</title>
<path fill="none" stroke="black" d="M661.29,-196.42C661.29,-213.45 661.29,-236.39 661.29,-236.39 661.29,-236.39 1396.25,-236.39 1396.25,-236.39"/>
<polygon fill="black" stroke="black" points="1396.25,-239.89 1406.25,-236.39 1396.25,-232.89 1396.25,-239.89"/>
</g>
<!-- SubscriptionsListComponent -->
<g id="node11" class="node">
<title>SubscriptionsListComponent</title>
<polygon fill="#ffffb3" stroke="black" points="494.83,-196.39 315.17,-196.39 315.17,-160.39 494.83,-160.39 494.83,-196.39"/>
<text text-anchor="middle" x="405" y="-174.19" font-family="Times,serif" font-size="14.00">SubscriptionsListComponent</text>
</g>
<!-- SubscriptionsListComponent&#45;&gt;ProfileModule -->
<g id="edge13" class="edge">
<title>SubscriptionsListComponent&#45;&gt;ProfileModule</title>
<path fill="none" stroke="black" d="M459.63,-196.39C459.63,-214.07 459.63,-238.39 459.63,-238.39 459.63,-238.39 1396.32,-238.39 1396.32,-238.39"/>
<polygon fill="black" stroke="black" points="1396.32,-241.89 1406.32,-238.39 1396.32,-234.89 1396.32,-241.89"/>
</g>
<!-- UserReportsComponent -->
<g id="node12" class="node">
<title>UserReportsComponent</title>
<polygon fill="#ffffb3" stroke="black" points="297.81,-196.39 146.19,-196.39 146.19,-160.39 297.81,-160.39 297.81,-196.39"/>
<text text-anchor="middle" x="222" y="-174.19" font-family="Times,serif" font-size="14.00">UserReportsComponent</text>
</g>
<!-- UserReportsComponent&#45;&gt;ProfileModule -->
<g id="edge14" class="edge">
<title>UserReportsComponent&#45;&gt;ProfileModule</title>
<path fill="none" stroke="black" d="M196.78,-196.5C196.78,-215.73 196.78,-243.39 196.78,-243.39 196.78,-243.39 1396.06,-243.39 1396.06,-243.39"/>
<polygon fill="black" stroke="black" points="1396.06,-246.89 1406.06,-243.39 1396.06,-239.89 1396.06,-246.89"/>
</g>
<!-- UserReportsComponent&#45;&gt;ProfileModule -->
<g id="edge15" class="edge">
<title>UserReportsComponent&#45;&gt;ProfileModule</title>
<path fill="none" stroke="black" d="M247.22,-196.61C247.22,-215.22 247.22,-241.39 247.22,-241.39 247.22,-241.39 1396.16,-241.39 1396.16,-241.39"/>
<polygon fill="black" stroke="black" points="1396.16,-244.89 1406.16,-241.39 1396.16,-237.89 1396.16,-244.89"/>
</g>
<!-- AboutComponent  -->
<g id="node17" class="node">
<title>AboutComponent </title>
<polygon fill="#fb8072" stroke="black" points="2370.83,-326.39 2251.17,-326.39 2251.17,-290.39 2370.83,-290.39 2370.83,-326.39"/>
<text text-anchor="middle" x="2311" y="-304.19" font-family="Times,serif" font-size="14.00">AboutComponent </text>
</g>
<!-- ProfileModule&#45;&gt;AboutComponent  -->
<g id="edge17" class="edge">
<title>ProfileModule&#45;&gt;AboutComponent </title>
<path fill="none" stroke="black" stroke-dasharray="5,2" d="M1503.85,-249.39C1677.6,-249.39 2255.25,-249.39 2255.25,-249.39 2255.25,-249.39 2255.25,-280.37 2255.25,-280.37"/>
<polygon fill="black" stroke="black" points="2251.75,-280.37 2255.25,-290.37 2258.75,-280.37 2251.75,-280.37"/>
</g>
<!-- BillingsComponent  -->
<g id="node18" class="node">
<title>BillingsComponent </title>
<polygon fill="#fb8072" stroke="black" points="2232.68,-326.39 2103.32,-326.39 2103.32,-290.39 2232.68,-290.39 2232.68,-326.39"/>
<text text-anchor="middle" x="2168" y="-304.19" font-family="Times,serif" font-size="14.00">BillingsComponent </text>
</g>
<!-- ProfileModule&#45;&gt;BillingsComponent  -->
<g id="edge18" class="edge">
<title>ProfileModule&#45;&gt;BillingsComponent </title>
<path fill="none" stroke="black" stroke-dasharray="5,2" d="M1503.88,-251.39C1668.32,-251.39 2191.26,-251.39 2191.26,-251.39 2191.26,-251.39 2191.26,-280.35 2191.26,-280.35"/>
<polygon fill="black" stroke="black" points="2187.76,-280.35 2191.26,-290.35 2194.76,-280.35 2187.76,-280.35"/>
</g>
<!-- CompanyComponent  -->
<g id="node19" class="node">
<title>CompanyComponent </title>
<polygon fill="#fb8072" stroke="black" points="2085.77,-326.39 1946.23,-326.39 1946.23,-290.39 2085.77,-290.39 2085.77,-326.39"/>
<text text-anchor="middle" x="2016" y="-304.19" font-family="Times,serif" font-size="14.00">CompanyComponent </text>
</g>
<!-- ProfileModule&#45;&gt;CompanyComponent  -->
<g id="edge19" class="edge">
<title>ProfileModule&#45;&gt;CompanyComponent </title>
<path fill="none" stroke="black" stroke-dasharray="5,2" d="M1503.86,-254.39C1630.56,-254.39 1959.84,-254.39 1959.84,-254.39 1959.84,-254.39 1959.84,-280.11 1959.84,-280.11"/>
<polygon fill="black" stroke="black" points="1956.34,-280.11 1959.84,-290.11 1963.34,-280.11 1956.34,-280.11"/>
</g>
<!-- CreditCarDListPageComponent  -->
<g id="node20" class="node">
<title>CreditCarDListPageComponent </title>
<polygon fill="#fb8072" stroke="black" points="1928.63,-326.39 1729.37,-326.39 1729.37,-290.39 1928.63,-290.39 1928.63,-326.39"/>
<text text-anchor="middle" x="1829" y="-304.19" font-family="Times,serif" font-size="14.00">CreditCarDListPageComponent </text>
</g>
<!-- ProfileModule&#45;&gt;CreditCarDListPageComponent  -->
<g id="edge20" class="edge">
<title>ProfileModule&#45;&gt;CreditCarDListPageComponent </title>
<path fill="none" stroke="black" stroke-dasharray="5,2" d="M1503.93,-256.39C1592.01,-256.39 1768.16,-256.39 1768.16,-256.39 1768.16,-256.39 1768.16,-280.2 1768.16,-280.2"/>
<polygon fill="black" stroke="black" points="1764.66,-280.2 1768.16,-290.2 1771.66,-280.2 1764.66,-280.2"/>
</g>
<!-- NewCardComponent  -->
<g id="node21" class="node">
<title>NewCardComponent </title>
<polygon fill="#fb8072" stroke="black" points="1711.47,-326.39 1572.53,-326.39 1572.53,-290.39 1711.47,-290.39 1711.47,-326.39"/>
<text text-anchor="middle" x="1642" y="-304.19" font-family="Times,serif" font-size="14.00">NewCardComponent </text>
</g>
<!-- ProfileModule&#45;&gt;NewCardComponent  -->
<g id="edge21" class="edge">
<title>ProfileModule&#45;&gt;NewCardComponent </title>
<path fill="none" stroke="black" stroke-dasharray="5,2" d="M1504.06,-259.39C1550.38,-259.39 1612.79,-259.39 1612.79,-259.39 1612.79,-259.39 1612.79,-280.14 1612.79,-280.14"/>
<polygon fill="black" stroke="black" points="1609.29,-280.14 1612.79,-290.14 1616.29,-280.14 1609.29,-280.14"/>
</g>
<!-- PersonalInformationComponent  -->
<g id="node22" class="node">
<title>PersonalInformationComponent </title>
<polygon fill="#fb8072" stroke="black" points="1554.91,-326.39 1355.09,-326.39 1355.09,-290.39 1554.91,-290.39 1554.91,-326.39"/>
<text text-anchor="middle" x="1455" y="-304.19" font-family="Times,serif" font-size="14.00">PersonalInformationComponent </text>
</g>
<!-- ProfileModule&#45;&gt;PersonalInformationComponent  -->
<g id="edge22" class="edge">
<title>ProfileModule&#45;&gt;PersonalInformationComponent </title>
<path fill="none" stroke="black" stroke-dasharray="5,2" d="M1455,-261.5C1455,-261.5 1455,-280.38 1455,-280.38"/>
<polygon fill="black" stroke="black" points="1451.5,-280.38 1455,-290.38 1458.5,-280.38 1451.5,-280.38"/>
</g>
<!-- PlansListComponent  -->
<g id="node23" class="node">
<title>PlansListComponent </title>
<polygon fill="#fb8072" stroke="black" points="1337.44,-326.39 1200.56,-326.39 1200.56,-290.39 1337.44,-290.39 1337.44,-326.39"/>
<text text-anchor="middle" x="1269" y="-304.19" font-family="Times,serif" font-size="14.00">PlansListComponent </text>
</g>
<!-- ProfileModule&#45;&gt;PlansListComponent  -->
<g id="edge23" class="edge">
<title>ProfileModule&#45;&gt;PlansListComponent </title>
<path fill="none" stroke="black" stroke-dasharray="5,2" d="M1405.96,-259.39C1362.27,-259.39 1305.22,-259.39 1305.22,-259.39 1305.22,-259.39 1305.22,-280.14 1305.22,-280.14"/>
<polygon fill="black" stroke="black" points="1301.72,-280.14 1305.22,-290.14 1308.72,-280.14 1301.72,-280.14"/>
</g>
<!-- ProfilePageComponent  -->
<g id="node24" class="node">
<title>ProfilePageComponent </title>
<polygon fill="#fb8072" stroke="black" points="1182.14,-326.39 1031.86,-326.39 1031.86,-290.39 1182.14,-290.39 1182.14,-326.39"/>
<text text-anchor="middle" x="1107" y="-304.19" font-family="Times,serif" font-size="14.00">ProfilePageComponent </text>
</g>
<!-- ProfileModule&#45;&gt;ProfilePageComponent  -->
<g id="edge24" class="edge">
<title>ProfileModule&#45;&gt;ProfilePageComponent </title>
<path fill="none" stroke="black" stroke-dasharray="5,2" d="M1405.99,-256.39C1313.06,-256.39 1120.43,-256.39 1120.43,-256.39 1120.43,-256.39 1120.43,-280.2 1120.43,-280.2"/>
<polygon fill="black" stroke="black" points="1116.93,-280.2 1120.43,-290.2 1123.93,-280.2 1116.93,-280.2"/>
</g>
<!-- StripePaymentCreationComponent  -->
<g id="node25" class="node">
<title>StripePaymentCreationComponent </title>
<polygon fill="#fb8072" stroke="black" points="1013.97,-326.39 798.03,-326.39 798.03,-290.39 1013.97,-290.39 1013.97,-326.39"/>
<text text-anchor="middle" x="906" y="-304.19" font-family="Times,serif" font-size="14.00">StripePaymentCreationComponent </text>
</g>
<!-- ProfileModule&#45;&gt;StripePaymentCreationComponent  -->
<g id="edge25" class="edge">
<title>ProfileModule&#45;&gt;StripePaymentCreationComponent </title>
<path fill="none" stroke="black" stroke-dasharray="5,2" d="M1406.23,-254.39C1281.48,-254.39 960.51,-254.39 960.51,-254.39 960.51,-254.39 960.51,-280.11 960.51,-280.11"/>
<polygon fill="black" stroke="black" points="957.01,-280.11 960.51,-290.11 964.01,-280.11 957.01,-280.11"/>
</g>
<!-- SubscriptionsListComponent  -->
<g id="node26" class="node">
<title>SubscriptionsListComponent </title>
<polygon fill="#fb8072" stroke="black" points="780.33,-326.39 597.67,-326.39 597.67,-290.39 780.33,-290.39 780.33,-326.39"/>
<text text-anchor="middle" x="689" y="-304.19" font-family="Times,serif" font-size="14.00">SubscriptionsListComponent </text>
</g>
<!-- ProfileModule&#45;&gt;SubscriptionsListComponent  -->
<g id="edge26" class="edge">
<title>ProfileModule&#45;&gt;SubscriptionsListComponent </title>
<path fill="none" stroke="black" stroke-dasharray="5,2" d="M1406.24,-251.39C1248.39,-251.39 761.55,-251.39 761.55,-251.39 761.55,-251.39 761.55,-280.35 761.55,-280.35"/>
<polygon fill="black" stroke="black" points="758.05,-280.35 761.55,-290.35 765.05,-280.35 758.05,-280.35"/>
</g>
<!-- UserReportsComponent  -->
<g id="node27" class="node">
<title>UserReportsComponent </title>
<polygon fill="#fb8072" stroke="black" points="579.31,-326.39 424.69,-326.39 424.69,-290.39 579.31,-290.39 579.31,-326.39"/>
<text text-anchor="middle" x="502" y="-304.19" font-family="Times,serif" font-size="14.00">UserReportsComponent </text>
</g>
<!-- ProfileModule&#45;&gt;UserReportsComponent  -->
<g id="edge27" class="edge">
<title>ProfileModule&#45;&gt;UserReportsComponent </title>
<path fill="none" stroke="black" stroke-dasharray="5,2" d="M1406.14,-249.39C1217.37,-249.39 546.21,-249.39 546.21,-249.39 546.21,-249.39 546.21,-280.37 546.21,-280.37"/>
<polygon fill="black" stroke="black" points="542.71,-280.37 546.21,-290.37 549.71,-280.37 542.71,-280.37"/>
</g>
<!-- {
 &#160;&#160;&#160;provide: DateAdapter, useClass: MomentDateAdapter, deps: [MAT_DATE_LOCALE, MAT_MOMENT_DATE_ADAPTER_OPTIONS]
} -->
<g id="node14" class="node">
<title>{
 &#160;&#160;&#160;provide: DateAdapter, useClass: MomentDateAdapter, deps: [MAT_DATE_LOCALE, MAT_MOMENT_DATE_ADAPTER_OPTIONS]
}</title>
<ellipse fill="#fdb462" stroke="black" cx="3964" cy="-90.1" rx="572.91" ry="41.09"/>
<text text-anchor="middle" x="3964" y="-102.7" font-family="Times,serif" font-size="14.00">{</text>
<text text-anchor="middle" x="3964" y="-85.9" font-family="Times,serif" font-size="14.00"> &#160;&#160;&#160;provide: DateAdapter, useClass: MomentDateAdapter, deps: [MAT_DATE_LOCALE, MAT_MOMENT_DATE_ADAPTER_OPTIONS]</text>
<text text-anchor="middle" x="3964" y="-69.1" font-family="Times,serif" font-size="14.00">}</text>
</g>
<!-- {
 &#160;&#160;&#160;provide: DateAdapter, useClass: MomentDateAdapter, deps: [MAT_DATE_LOCALE, MAT_MOMENT_DATE_ADAPTER_OPTIONS]
}&#45;&gt;NewCardComponent -->
<g id="edge7" class="edge">
<title>{
 &#160;&#160;&#160;provide: DateAdapter, useClass: MomentDateAdapter, deps: [MAT_DATE_LOCALE, MAT_MOMENT_DATE_ADAPTER_OPTIONS]
}&#45;&gt;NewCardComponent</title>
<path fill="none" stroke="black" d="M3574.5,-120.39C3353.84,-120.39 3121.5,-120.39 3121.5,-120.39 3121.5,-120.39 3121.5,-150.36 3121.5,-150.36"/>
<polygon fill="black" stroke="black" points="3118,-150.36 3121.5,-160.36 3125,-150.36 3118,-150.36"/>
</g>
<!-- { provide: MAT_DATE_FORMATS, useValue: MY_FORMATS } -->
<g id="node15" class="node">
<title>{ provide: MAT_DATE_FORMATS, useValue: MY_FORMATS }</title>
<ellipse fill="#fdb462" stroke="black" cx="3099" cy="-90.1" rx="274.06" ry="18"/>
<text text-anchor="middle" x="3099" y="-85.9" font-family="Times,serif" font-size="14.00">{ provide: MAT_DATE_FORMATS, useValue: MY_FORMATS }</text>
</g>
<!-- { provide: MAT_DATE_FORMATS, useValue: MY_FORMATS }&#45;&gt;NewCardComponent -->
<g id="edge8" class="edge">
<title>{ provide: MAT_DATE_FORMATS, useValue: MY_FORMATS }&#45;&gt;NewCardComponent</title>
<path fill="none" stroke="black" d="M3076.5,-108.39C3076.5,-108.39 3076.5,-150.12 3076.5,-150.12"/>
<polygon fill="black" stroke="black" points="3073,-150.12 3076.5,-160.12 3080,-150.12 3073,-150.12"/>
</g>
<!-- SharedModule -->
<g id="node16" class="node">
<title>SharedModule</title>
<polygon fill="#8dd3c7" stroke="black" points="122.42,-196.39 119.42,-200.39 98.42,-200.39 95.42,-196.39 23.58,-196.39 23.58,-160.39 122.42,-160.39 122.42,-196.39"/>
<text text-anchor="middle" x="73" y="-174.19" font-family="Times,serif" font-size="14.00">SharedModule</text>
</g>
<!-- SharedModule&#45;&gt;ProfileModule -->
<g id="edge16" class="edge">
<title>SharedModule&#45;&gt;ProfileModule</title>
<path fill="none" stroke="black" d="M73,-196.61C73,-216.76 73,-246.39 73,-246.39 73,-246.39 1396.22,-246.39 1396.22,-246.39"/>
<polygon fill="black" stroke="black" points="1396.22,-249.89 1406.22,-246.39 1396.22,-242.89 1396.22,-249.89"/>
</g>
<!-- AuthProvider -->
<g id="node28" class="node">
<title>AuthProvider</title>
<ellipse fill="#fdb462" stroke="black" cx="2737" cy="-178.39" rx="63.7" ry="18"/>
<text text-anchor="middle" x="2737" y="-174.19" font-family="Times,serif" font-size="14.00">AuthProvider</text>
</g>
<!-- AuthProvider&#45;&gt;ProfileModule -->
<g id="edge28" class="edge">
<title>AuthProvider&#45;&gt;ProfileModule</title>
<path fill="none" stroke="black" d="M2737,-196.5C2737,-215.73 2737,-243.39 2737,-243.39 2737,-243.39 1513.69,-243.39 1513.69,-243.39"/>
<polygon fill="black" stroke="black" points="1513.69,-239.89 1503.69,-243.39 1513.69,-246.89 1513.69,-239.89"/>
</g>
<!-- NewCardFormProvider -->
<g id="node29" class="node">
<title>NewCardFormProvider</title>
<ellipse fill="#fdb462" stroke="black" cx="2553" cy="-178.39" rx="102.43" ry="18"/>
<text text-anchor="middle" x="2553" y="-174.19" font-family="Times,serif" font-size="14.00">NewCardFormProvider</text>
</g>
<!-- NewCardFormProvider&#45;&gt;ProfileModule -->
<g id="edge29" class="edge">
<title>NewCardFormProvider&#45;&gt;ProfileModule</title>
<path fill="none" stroke="black" d="M2553,-196.61C2553,-215.22 2553,-241.39 2553,-241.39 2553,-241.39 1513.95,-241.39 1513.95,-241.39"/>
<polygon fill="black" stroke="black" points="1513.95,-237.89 1503.95,-241.39 1513.95,-244.89 1513.95,-237.89"/>
</g>
<!-- PaymentProvider -->
<g id="node30" class="node">
<title>PaymentProvider</title>
<ellipse fill="#fdb462" stroke="black" cx="2355" cy="-178.39" rx="78.17" ry="18"/>
<text text-anchor="middle" x="2355" y="-174.19" font-family="Times,serif" font-size="14.00">PaymentProvider</text>
</g>
<!-- PaymentProvider&#45;&gt;ProfileModule -->
<g id="edge30" class="edge">
<title>PaymentProvider&#45;&gt;ProfileModule</title>
<path fill="none" stroke="black" d="M2323.92,-195.1C2323.92,-212.86 2323.92,-238.39 2323.92,-238.39 2323.92,-238.39 1513.89,-238.39 1513.89,-238.39"/>
<polygon fill="black" stroke="black" points="1513.89,-234.89 1503.89,-238.39 1513.89,-241.89 1513.89,-234.89"/>
</g>
<!-- SettingsProvider -->
<g id="node31" class="node">
<title>SettingsProvider</title>
<ellipse fill="#fdb462" stroke="black" cx="2184" cy="-178.39" rx="75.32" ry="18"/>
<text text-anchor="middle" x="2184" y="-174.19" font-family="Times,serif" font-size="14.00">SettingsProvider</text>
</g>
<!-- SettingsProvider&#45;&gt;ProfileModule -->
<g id="edge31" class="edge">
<title>SettingsProvider&#45;&gt;ProfileModule</title>
<path fill="none" stroke="black" d="M2149.92,-194.55C2149.92,-211.71 2149.92,-236.39 2149.92,-236.39 2149.92,-236.39 1513.87,-236.39 1513.87,-236.39"/>
<polygon fill="black" stroke="black" points="1513.87,-232.89 1503.87,-236.39 1513.87,-239.89 1513.87,-232.89"/>
</g>
</g>
</svg>
