<?xml version="1.0" encoding="UTF-8" standalone="no"?>
<!DOCTYPE svg PUBLIC "-//W3C//DTD SVG 1.1//EN"
 "http://www.w3.org/Graphics/SVG/1.1/DTD/svg11.dtd">
<!-- Generated by graphviz version 2.40.1 (20161225.0304)
 -->
<!-- Title: dependencies Pages: 1 -->
<svg width="504pt" height="211pt"
 viewBox="0.00 0.00 504.00 211.00" xmlns="http://www.w3.org/2000/svg" xmlns:xlink="http://www.w3.org/1999/xlink">
<g id="graph0" class="graph" transform="scale(1 1) rotate(0) translate(4 207)">
<title>dependencies</title>
<polygon fill="#ffffff" stroke="transparent" points="-4,4 -4,-207 500,-207 500,4 -4,4"/>
<text text-anchor="start" x="227.0091" y="-42.4" font-family="sans-serif" font-weight="bold" font-size="14.00" fill="#000000">Legend</text>
<polygon fill="#ffffb3" stroke="transparent" points="14,-10 14,-30 34,-30 34,-10 14,-10"/>
<text text-anchor="start" x="37.629" y="-15.4" font-family="sans-serif" font-size="14.00" fill="#000000"> &#160;Declarations</text>
<polygon fill="#8dd3c7" stroke="transparent" points="127,-10 127,-30 147,-30 147,-10 127,-10"/>
<text text-anchor="start" x="150.7251" y="-15.4" font-family="sans-serif" font-size="14.00" fill="#000000"> &#160;Module</text>
<polygon fill="#80b1d3" stroke="transparent" points="213,-10 213,-30 233,-30 233,-10 213,-10"/>
<text text-anchor="start" x="236.7812" y="-15.4" font-family="sans-serif" font-size="14.00" fill="#000000"> &#160;Bootstrap</text>
<polygon fill="#fdb462" stroke="transparent" points="310,-10 310,-30 330,-30 330,-10 310,-10"/>
<text text-anchor="start" x="333.6732" y="-15.4" font-family="sans-serif" font-size="14.00" fill="#000000"> &#160;Providers</text>
<polygon fill="#fb8072" stroke="transparent" points="406,-10 406,-30 426,-30 426,-10 406,-10"/>
<text text-anchor="start" x="429.7258" y="-15.4" font-family="sans-serif" font-size="14.00" fill="#000000"> &#160;Exports</text>
<g id="clust1" class="cluster">
<title>cluster_SystemModule</title>
<polygon fill="none" stroke="#000000" stroke-dasharray="1,5" points="62,-70 62,-195 434,-195 434,-70 62,-70"/>
</g>
<g id="clust3" class="cluster">
<title>cluster_SystemModule_imports</title>
<polygon fill="none" stroke="#000000" points="70,-78 70,-130 426,-130 426,-78 70,-78"/>
</g>
<!-- CommonModule -->
<g id="node1" class="node">
<title>CommonModule</title>
<polygon fill="#8dd3c7" stroke="#000000" points="417.6681,-122 414.6681,-126 393.6681,-126 390.6681,-122 306.3319,-122 306.3319,-86 417.6681,-86 417.6681,-122"/>
<text text-anchor="middle" x="362" y="-99.8" font-family="Times,serif" font-size="14.00" fill="#000000">CommonModule</text>
</g>
<!-- SystemModule -->
<g id="node4" class="node">
<title>SystemModule</title>
<polygon fill="#8dd3c7" stroke="#000000" points="291.2731,-187 288.2731,-191 267.2731,-191 264.2731,-187 190.7269,-187 190.7269,-151 291.2731,-151 291.2731,-187"/>
<text text-anchor="middle" x="241" y="-164.8" font-family="Times,serif" font-size="14.00" fill="#000000">SystemModule</text>
</g>
<!-- CommonModule&#45;&gt;SystemModule -->
<g id="edge1" class="edge">
<title>CommonModule&#45;&gt;SystemModule</title>
<path fill="none" stroke="#000000" d="M362,-122.1061C362,-141.3391 362,-169 362,-169 362,-169 301.6138,-169 301.6138,-169"/>
<polygon fill="#000000" stroke="#000000" points="301.6138,-165.5001 291.6138,-169 301.6138,-172.5001 301.6138,-165.5001"/>
</g>
<!-- FormsModule -->
<g id="node2" class="node">
<title>FormsModule</title>
<polygon fill="#8dd3c7" stroke="#000000" points="288.8288,-122 285.8288,-126 264.8288,-126 261.8288,-122 193.1712,-122 193.1712,-86 288.8288,-86 288.8288,-122"/>
<text text-anchor="middle" x="241" y="-99.8" font-family="Times,serif" font-size="14.00" fill="#000000">FormsModule</text>
</g>
<!-- FormsModule&#45;&gt;SystemModule -->
<g id="edge2" class="edge">
<title>FormsModule&#45;&gt;SystemModule</title>
<path fill="none" stroke="#000000" d="M241,-122.1061C241,-122.1061 241,-140.991 241,-140.991"/>
<polygon fill="#000000" stroke="#000000" points="237.5001,-140.9909 241,-150.991 244.5001,-140.991 237.5001,-140.9909"/>
</g>
<!-- RouterModule -->
<g id="node3" class="node">
<title>RouterModule</title>
<polygon fill="#8dd3c7" stroke="#000000" points="175.6528,-122 172.6528,-126 151.6528,-126 148.6528,-122 78.3472,-122 78.3472,-86 175.6528,-86 175.6528,-122"/>
<text text-anchor="middle" x="127" y="-99.8" font-family="Times,serif" font-size="14.00" fill="#000000">RouterModule</text>
</g>
<!-- RouterModule&#45;&gt;SystemModule -->
<g id="edge3" class="edge">
<title>RouterModule&#45;&gt;SystemModule</title>
<path fill="none" stroke="#000000" d="M127,-122.1061C127,-141.3391 127,-169 127,-169 127,-169 180.6661,-169 180.6661,-169"/>
<polygon fill="#000000" stroke="#000000" points="180.6661,-172.5001 190.6661,-169 180.6661,-165.5001 180.6661,-172.5001"/>
</g>
</g>
</svg>
